G04 Layer: DrillDrawingLayer*
G04 EasyEDA Pro v3.2.148, 2026-08-11 13:39:32*
G04 Gerber Generator version 0.3*
G04 Scale: 100 percent, Rotated: No, Reflected: No*
G04 Dimensions in millimeters*
G04 Leading zeros omitted, absolute positions, 4 integers and 5 decimals*
G04 Generated by one-click*
G04 Object Configs: Pad,Via,Track,Text,Image,Dimension,BoardOutline,BoardCutout,CopperFilled,SolidRegion,FPCStiffener,Line,PlaneZone,ComponentProperty,ComponentSilkscreen,TearDrop*
G04 Layer Configs: 1,2,3,4,5,6,7,8,9,10,11,13,14,56*
G04 Copper Areas: 0*
%FSLAX45Y45*%
%MOMM*%
%AMIconRect*4,1,4,0.28,-0.28,-0.28,-0.28,-0.28,0.28,0.28,0.28,0.28,-0.28,0*4,0,4,0.233333,-0.233333,0.233333,0.233333,-0.233333,0.233333,-0.233333,-0.233333,0.233333,-0.233333,0*%
%AMIconTriangle*4,1,3,-0.339593,0.240473,0.339593,0.240473,0,-0.37884,-0.339593,0.240473,0*4,0,3,-0.265673,0.19404,0,-0.27342,0.266233,0.19404,-0.265673,0.19404,0*%
%AMIconStar6*4,1,12,0.12068,0.20888,0.298527,0.172713,0.241313,0,0.298527,-0.17206,0.12068,-0.208227,0,-0.344073,-0.120073,-0.208227,-0.298573,-0.17206,-0.240707,0,-0.298573,0.17206,-0.120073,0.20888,0,0.344073,0.12068,0.20888,0*4,0,12,-0.000467,0.273467,-0.090067,0.171733,-0.237533,0.136733,-0.193667,-0.007467,-0.237533,-0.1372,-0.090067,-0.171733,-0.000467,-0.273933,0.090067,-0.171733,0.237533,-0.1372,0.194133,0.007,0.237533,0.1372,0.090067,0.171267,-0.000467,0.273467,0*%
%AMIconStar4*4,1,8,-0.311733,0.311733,0,0.202533,0.311733,0.311733,0.202533,0,0.311733,-0.311733,0,-0.202533,-0.304407,-0.311733,-0.202533,0,-0.311733,0.311733,0*4,0,8,0.233333,-0.233333,0.1512,0,0.233333,0.233333,0,0.1512,-0.233333,0.233333,-0.1512,0,-0.233333,-0.233333,0,-0.1512,0.233333,-0.233333,0*%
%AMIconPlus*4,1,12,0.1736,-0.28,-0.1736,-0.28,-0.1736,-0.1736,-0.28,-0.1736,-0.28,0.1736,-0.1736,0.1736,-0.1736,0.28,0.1736,0.28,0.1736,0.1736,0.28,0.1736,0.28,-0.1736,0.1736,-0.1736,0.1736,-0.28,0*4,0,12,0.126933,-0.233333,0.126933,-0.126933,0.233333,-0.126933,0.233333,0.126933,0.126933,0.126933,0.126933,0.233333,-0.126933,0.233333,-0.126933,0.126933,-0.233333,0.126933,-0.233333,-0.126933,-0.126933,-0.126933,-0.126933,-0.233333,0.126933,-0.233333,0*%
%ADD10IconRect*%
%ADD11C,0.616X0.522667*%
%ADD12IconTriangle*%
%ADD13IconStar6*%
%ADD14IconStar4*%
%ADD15IconPlus*%
%ADD16C,0.2032*%
%ADD17C,0.254*%
G75*


G04 Drill Drawing Start*
G54D10*
G01X16122500Y-2411100D03*
G54D11*
G01X15372500Y-2411100D03*
G54D12*
G01X14722500Y-2411100D03*
G54D13*
G01X14172500Y-2411100D03*
G54D14*
G01X13722500Y-2411100D03*
G54D15*
G01X3733800Y-1866900D03*
G01X4588070Y-2476500D03*
G01X4991100Y-2184400D03*
G01X5029200Y-1384300D03*
G01X17386300Y-2679700D03*
G01X17386300Y-292100D03*
G01X17741900Y-1892300D03*
G01X17741900Y-1130300D03*
G04 Drill Drawing End*

G04 Text Start*
G54D16*
G01X20300446Y-221706D02*
G01X20300446Y-341848D01*
G01X20300446Y-221706D02*
G01X20346166Y-341848D01*
G01X20391886Y-221706D02*
G01X20346166Y-341848D01*
G01X20391886Y-221706D02*
G01X20391886Y-341848D01*
G01X20508218Y-261838D02*
G01X20508218Y-341848D01*
G01X20508218Y-278856D02*
G01X20496788Y-267426D01*
G01X20485358Y-261838D01*
G01X20468340Y-261838D01*
G01X20456910Y-267426D01*
G01X20445480Y-278856D01*
G01X20439638Y-296128D01*
G01X20439638Y-307558D01*
G01X20445480Y-324576D01*
G01X20456910Y-336006D01*
G01X20468340Y-341848D01*
G01X20485358Y-341848D01*
G01X20496788Y-336006D01*
G01X20508218Y-324576D01*
G01X20555970Y-261838D02*
G01X20555970Y-341848D01*
G01X20555970Y-296128D02*
G01X20561812Y-278856D01*
G01X20573242Y-267426D01*
G01X20584672Y-261838D01*
G01X20601690Y-261838D01*
G01X20649442Y-221706D02*
G01X20649442Y-341848D01*
G01X20706592Y-261838D02*
G01X20649442Y-318988D01*
G01X20672302Y-296128D02*
G01X20712434Y-341848D01*
G01X21837726Y-250408D02*
G01X21831884Y-238978D01*
G01X21820454Y-227548D01*
G01X21809024Y-221706D01*
G01X21786164Y-221706D01*
G01X21774734Y-227548D01*
G01X21763304Y-238978D01*
G01X21757716Y-250408D01*
G01X21751874Y-267426D01*
G01X21751874Y-296128D01*
G01X21757716Y-313146D01*
G01X21763304Y-324576D01*
G01X21774734Y-336006D01*
G01X21786164Y-341848D01*
G01X21809024Y-341848D01*
G01X21820454Y-336006D01*
G01X21831884Y-324576D01*
G01X21837726Y-313146D01*
G01X21914180Y-261838D02*
G01X21902750Y-267426D01*
G01X21891320Y-278856D01*
G01X21885478Y-296128D01*
G01X21885478Y-307558D01*
G01X21891320Y-324576D01*
G01X21902750Y-336006D01*
G01X21914180Y-341848D01*
G01X21931198Y-341848D01*
G01X21942628Y-336006D01*
G01X21954058Y-324576D01*
G01X21959900Y-307558D01*
G01X21959900Y-296128D01*
G01X21954058Y-278856D01*
G01X21942628Y-267426D01*
G01X21931198Y-261838D01*
G01X21914180Y-261838D01*
G01X22007652Y-261838D02*
G01X22007652Y-318988D01*
G01X22013494Y-336006D01*
G01X22024924Y-341848D01*
G01X22041942Y-341848D01*
G01X22053372Y-336006D01*
G01X22070644Y-318988D01*
G01X22070644Y-261838D02*
G01X22070644Y-341848D01*
G01X22118396Y-261838D02*
G01X22118396Y-341848D01*
G01X22118396Y-284698D02*
G01X22135668Y-267426D01*
G01X22147098Y-261838D01*
G01X22164116Y-261838D01*
G01X22175546Y-267426D01*
G01X22181388Y-284698D01*
G01X22181388Y-341848D01*
G01X22246412Y-221706D02*
G01X22246412Y-318988D01*
G01X22252000Y-336006D01*
G01X22263430Y-341848D01*
G01X22274860Y-341848D01*
G01X22229140Y-261838D02*
G01X22269272Y-261838D01*
G01X23246047Y-238978D02*
G01X23234617Y-227548D01*
G01X23217599Y-221706D01*
G01X23194739Y-221706D01*
G01X23177467Y-227548D01*
G01X23166037Y-238978D01*
G01X23166037Y-250408D01*
G01X23171879Y-261838D01*
G01X23177467Y-267426D01*
G01X23188897Y-273268D01*
G01X23223187Y-284698D01*
G01X23234617Y-290286D01*
G01X23240459Y-296128D01*
G01X23246047Y-307558D01*
G01X23246047Y-324576D01*
G01X23234617Y-336006D01*
G01X23217599Y-341848D01*
G01X23194739Y-341848D01*
G01X23177467Y-336006D01*
G01X23166037Y-324576D01*
G01X23293799Y-221706D02*
G01X23299641Y-227548D01*
G01X23305229Y-221706D01*
G01X23299641Y-216118D01*
G01X23293799Y-221706D01*
G01X23299641Y-261838D02*
G01X23299641Y-341848D01*
G01X23415973Y-261838D02*
G01X23352981Y-341848D01*
G01X23352981Y-261838D02*
G01X23415973Y-261838D01*
G01X23352981Y-341848D02*
G01X23415973Y-341848D01*
G01X23463725Y-296128D02*
G01X23532305Y-296128D01*
G01X23532305Y-284698D01*
G01X23526717Y-273268D01*
G01X23520875Y-267426D01*
G01X23509445Y-261838D01*
G01X23492427Y-261838D01*
G01X23480997Y-267426D01*
G01X23469567Y-278856D01*
G01X23463725Y-296128D01*
G01X23463725Y-307558D01*
G01X23469567Y-324576D01*
G01X23480997Y-336006D01*
G01X23492427Y-341848D01*
G01X23509445Y-341848D01*
G01X23520875Y-336006D01*
G01X23532305Y-324576D01*
G01X27224087Y-221706D02*
G01X27224087Y-341848D01*
G01X27224087Y-221706D02*
G01X27275649Y-221706D01*
G01X27292667Y-227548D01*
G01X27298509Y-233136D01*
G01X27304097Y-244566D01*
G01X27304097Y-261838D01*
G01X27298509Y-273268D01*
G01X27292667Y-278856D01*
G01X27275649Y-284698D01*
G01X27224087Y-284698D01*
G01X27351849Y-221706D02*
G01X27351849Y-341848D01*
G01X27468181Y-261838D02*
G01X27468181Y-341848D01*
G01X27468181Y-278856D02*
G01X27456751Y-267426D01*
G01X27445321Y-261838D01*
G01X27428303Y-261838D01*
G01X27416873Y-267426D01*
G01X27405443Y-278856D01*
G01X27399601Y-296128D01*
G01X27399601Y-307558D01*
G01X27405443Y-324576D01*
G01X27416873Y-336006D01*
G01X27428303Y-341848D01*
G01X27445321Y-341848D01*
G01X27456751Y-336006D01*
G01X27468181Y-324576D01*
G01X27533205Y-221706D02*
G01X27533205Y-318988D01*
G01X27538793Y-336006D01*
G01X27550223Y-341848D01*
G01X27561653Y-341848D01*
G01X27515933Y-261838D02*
G01X27556065Y-261838D01*
G01X27609405Y-296128D02*
G01X27677985Y-296128D01*
G01X27677985Y-284698D01*
G01X27672397Y-273268D01*
G01X27666555Y-267426D01*
G01X27655125Y-261838D01*
G01X27638107Y-261838D01*
G01X27626677Y-267426D01*
G01X27615247Y-278856D01*
G01X27609405Y-296128D01*
G01X27609405Y-307558D01*
G01X27615247Y-324576D01*
G01X27626677Y-336006D01*
G01X27638107Y-341848D01*
G01X27655125Y-341848D01*
G01X27666555Y-336006D01*
G01X27677985Y-324576D01*
G01X27794317Y-221706D02*
G01X27794317Y-341848D01*
G01X27794317Y-278856D02*
G01X27782887Y-267426D01*
G01X27771457Y-261838D01*
G01X27754439Y-261838D01*
G01X27743009Y-267426D01*
G01X27731579Y-278856D01*
G01X27725737Y-296128D01*
G01X27725737Y-307558D01*
G01X27731579Y-324576D01*
G01X27743009Y-336006D01*
G01X27754439Y-341848D01*
G01X27771457Y-341848D01*
G01X27782887Y-336006D01*
G01X27794317Y-324576D01*
G01X28765504Y-238978D02*
G01X28754074Y-227548D01*
G01X28737056Y-221706D01*
G01X28714196Y-221706D01*
G01X28696924Y-227548D01*
G01X28685494Y-238978D01*
G01X28685494Y-250408D01*
G01X28691336Y-261838D01*
G01X28696924Y-267426D01*
G01X28708354Y-273268D01*
G01X28742644Y-284698D01*
G01X28754074Y-290286D01*
G01X28759916Y-296128D01*
G01X28765504Y-307558D01*
G01X28765504Y-324576D01*
G01X28754074Y-336006D01*
G01X28737056Y-341848D01*
G01X28714196Y-341848D01*
G01X28696924Y-336006D01*
G01X28685494Y-324576D01*
G01X28813256Y-221706D02*
G01X28813256Y-341848D01*
G01X28813256Y-284698D02*
G01X28830528Y-267426D01*
G01X28841958Y-261838D01*
G01X28858976Y-261838D01*
G01X28870406Y-267426D01*
G01X28876248Y-284698D01*
G01X28876248Y-341848D01*
G01X28992580Y-261838D02*
G01X28992580Y-341848D01*
G01X28992580Y-278856D02*
G01X28981150Y-267426D01*
G01X28969720Y-261838D01*
G01X28952702Y-261838D01*
G01X28941272Y-267426D01*
G01X28929842Y-278856D01*
G01X28924000Y-296128D01*
G01X28924000Y-307558D01*
G01X28929842Y-324576D01*
G01X28941272Y-336006D01*
G01X28952702Y-341848D01*
G01X28969720Y-341848D01*
G01X28981150Y-336006D01*
G01X28992580Y-324576D01*
G01X29040332Y-261838D02*
G01X29040332Y-381726D01*
G01X29040332Y-278856D02*
G01X29051762Y-267426D01*
G01X29063192Y-261838D01*
G01X29080464Y-261838D01*
G01X29091894Y-267426D01*
G01X29103324Y-278856D01*
G01X29108912Y-296128D01*
G01X29108912Y-307558D01*
G01X29103324Y-324576D01*
G01X29091894Y-336006D01*
G01X29080464Y-341848D01*
G01X29063192Y-341848D01*
G01X29051762Y-336006D01*
G01X29040332Y-324576D01*
G01X29156664Y-296128D02*
G01X29225244Y-296128D01*
G01X29225244Y-284698D01*
G01X29219656Y-273268D01*
G01X29213814Y-267426D01*
G01X29202384Y-261838D01*
G01X29185366Y-261838D01*
G01X29173936Y-267426D01*
G01X29162506Y-278856D01*
G01X29156664Y-296128D01*
G01X29156664Y-307558D01*
G01X29162506Y-324576D01*
G01X29173936Y-336006D01*
G01X29185366Y-341848D01*
G01X29202384Y-341848D01*
G01X29213814Y-336006D01*
G01X29225244Y-324576D01*
G01X30116675Y-221706D02*
G01X30162395Y-341848D01*
G01X30208115Y-221706D02*
G01X30162395Y-341848D01*
G01X30255867Y-221706D02*
G01X30261709Y-227548D01*
G01X30267297Y-221706D01*
G01X30261709Y-216118D01*
G01X30255867Y-221706D01*
G01X30261709Y-261838D02*
G01X30261709Y-341848D01*
G01X30383629Y-261838D02*
G01X30383629Y-341848D01*
G01X30383629Y-278856D02*
G01X30372199Y-267426D01*
G01X30360769Y-261838D01*
G01X30343751Y-261838D01*
G01X30332321Y-267426D01*
G01X30320891Y-278856D01*
G01X30315049Y-296128D01*
G01X30315049Y-307558D01*
G01X30320891Y-324576D01*
G01X30332321Y-336006D01*
G01X30343751Y-341848D01*
G01X30360769Y-341848D01*
G01X30372199Y-336006D01*
G01X30383629Y-324576D01*
G01X30534251Y-198846D02*
G01X30431381Y-381726D01*
G01X30582003Y-221706D02*
G01X30582003Y-341848D01*
G01X30582003Y-221706D02*
G01X30633565Y-221706D01*
G01X30650583Y-227548D01*
G01X30656425Y-233136D01*
G01X30662013Y-244566D01*
G01X30662013Y-261838D01*
G01X30656425Y-273268D01*
G01X30650583Y-278856D01*
G01X30633565Y-284698D01*
G01X30582003Y-284698D01*
G01X30778345Y-261838D02*
G01X30778345Y-341848D01*
G01X30778345Y-278856D02*
G01X30766915Y-267426D01*
G01X30755485Y-261838D01*
G01X30738467Y-261838D01*
G01X30727037Y-267426D01*
G01X30715607Y-278856D01*
G01X30709765Y-296128D01*
G01X30709765Y-307558D01*
G01X30715607Y-324576D01*
G01X30727037Y-336006D01*
G01X30738467Y-341848D01*
G01X30755485Y-341848D01*
G01X30766915Y-336006D01*
G01X30778345Y-324576D01*
G01X30894677Y-221706D02*
G01X30894677Y-341848D01*
G01X30894677Y-278856D02*
G01X30883247Y-267426D01*
G01X30871817Y-261838D01*
G01X30854799Y-261838D01*
G01X30843369Y-267426D01*
G01X30831939Y-278856D01*
G01X30826097Y-296128D01*
G01X30826097Y-307558D01*
G01X30831939Y-324576D01*
G01X30843369Y-336006D01*
G01X30854799Y-341848D01*
G01X30871817Y-341848D01*
G01X30883247Y-336006D01*
G01X30894677Y-324576D01*
G01X31785854Y-221706D02*
G01X31785854Y-341848D01*
G01X31785854Y-221706D02*
G01X31837416Y-221706D01*
G01X31854434Y-227548D01*
G01X31860276Y-233136D01*
G01X31865864Y-244566D01*
G01X31865864Y-261838D01*
G01X31860276Y-273268D01*
G01X31854434Y-278856D01*
G01X31837416Y-284698D01*
G01X31785854Y-284698D01*
G01X31982196Y-261838D02*
G01X31982196Y-341848D01*
G01X31982196Y-278856D02*
G01X31970766Y-267426D01*
G01X31959336Y-261838D01*
G01X31942318Y-261838D01*
G01X31930888Y-267426D01*
G01X31919458Y-278856D01*
G01X31913616Y-296128D01*
G01X31913616Y-307558D01*
G01X31919458Y-324576D01*
G01X31930888Y-336006D01*
G01X31942318Y-341848D01*
G01X31959336Y-341848D01*
G01X31970766Y-336006D01*
G01X31982196Y-324576D01*
G01X32098528Y-221706D02*
G01X32098528Y-341848D01*
G01X32098528Y-278856D02*
G01X32087098Y-267426D01*
G01X32075668Y-261838D01*
G01X32058650Y-261838D01*
G01X32047220Y-267426D01*
G01X32035790Y-278856D01*
G01X32029948Y-296128D01*
G01X32029948Y-307558D01*
G01X32035790Y-324576D01*
G01X32047220Y-336006D01*
G01X32058650Y-341848D01*
G01X32075668Y-341848D01*
G01X32087098Y-336006D01*
G01X32098528Y-324576D01*
G01X32354306Y-238978D02*
G01X32342876Y-227548D01*
G01X32325858Y-221706D01*
G01X32302998Y-221706D01*
G01X32285726Y-227548D01*
G01X32274296Y-238978D01*
G01X32274296Y-250408D01*
G01X32280138Y-261838D01*
G01X32285726Y-267426D01*
G01X32297156Y-273268D01*
G01X32331446Y-284698D01*
G01X32342876Y-290286D01*
G01X32348718Y-296128D01*
G01X32354306Y-307558D01*
G01X32354306Y-324576D01*
G01X32342876Y-336006D01*
G01X32325858Y-341848D01*
G01X32302998Y-341848D01*
G01X32285726Y-336006D01*
G01X32274296Y-324576D01*
G01X32402058Y-221706D02*
G01X32402058Y-341848D01*
G01X32402058Y-284698D02*
G01X32419330Y-267426D01*
G01X32430760Y-261838D01*
G01X32447778Y-261838D01*
G01X32459208Y-267426D01*
G01X32465050Y-284698D01*
G01X32465050Y-341848D01*
G01X32581382Y-261838D02*
G01X32581382Y-341848D01*
G01X32581382Y-278856D02*
G01X32569952Y-267426D01*
G01X32558522Y-261838D01*
G01X32541504Y-261838D01*
G01X32530074Y-267426D01*
G01X32518644Y-278856D01*
G01X32512802Y-296128D01*
G01X32512802Y-307558D01*
G01X32518644Y-324576D01*
G01X32530074Y-336006D01*
G01X32541504Y-341848D01*
G01X32558522Y-341848D01*
G01X32569952Y-336006D01*
G01X32581382Y-324576D01*
G01X32629134Y-261838D02*
G01X32629134Y-381726D01*
G01X32629134Y-278856D02*
G01X32640564Y-267426D01*
G01X32651994Y-261838D01*
G01X32669266Y-261838D01*
G01X32680696Y-267426D01*
G01X32692126Y-278856D01*
G01X32697714Y-296128D01*
G01X32697714Y-307558D01*
G01X32692126Y-324576D01*
G01X32680696Y-336006D01*
G01X32669266Y-341848D01*
G01X32651994Y-341848D01*
G01X32640564Y-336006D01*
G01X32629134Y-324576D01*
G01X32745466Y-296128D02*
G01X32814046Y-296128D01*
G01X32814046Y-284698D01*
G01X32808458Y-273268D01*
G01X32802616Y-267426D01*
G01X32791186Y-261838D01*
G01X32774168Y-261838D01*
G01X32762738Y-267426D01*
G01X32751308Y-278856D01*
G01X32745466Y-296128D01*
G01X32745466Y-307558D01*
G01X32751308Y-324576D01*
G01X32762738Y-336006D01*
G01X32774168Y-341848D01*
G01X32791186Y-341848D01*
G01X32802616Y-336006D01*
G01X32814046Y-324576D01*
G01X33705223Y-221706D02*
G01X33705223Y-341848D01*
G01X33705223Y-341848D02*
G01X33773803Y-341848D01*
G01X33890135Y-261838D02*
G01X33890135Y-341848D01*
G01X33890135Y-278856D02*
G01X33878705Y-267426D01*
G01X33867275Y-261838D01*
G01X33850257Y-261838D01*
G01X33838827Y-267426D01*
G01X33827397Y-278856D01*
G01X33821555Y-296128D01*
G01X33821555Y-307558D01*
G01X33827397Y-324576D01*
G01X33838827Y-336006D01*
G01X33850257Y-341848D01*
G01X33867275Y-341848D01*
G01X33878705Y-336006D01*
G01X33890135Y-324576D01*
G01X33943729Y-261838D02*
G01X33978019Y-341848D01*
G01X34012309Y-261838D02*
G01X33978019Y-341848D01*
G01X33966589Y-364708D01*
G01X33955159Y-376138D01*
G01X33943729Y-381726D01*
G01X33937887Y-381726D01*
G01X34060061Y-296128D02*
G01X34128641Y-296128D01*
G01X34128641Y-284698D01*
G01X34123053Y-273268D01*
G01X34117211Y-267426D01*
G01X34105781Y-261838D01*
G01X34088763Y-261838D01*
G01X34077333Y-267426D01*
G01X34065903Y-278856D01*
G01X34060061Y-296128D01*
G01X34060061Y-307558D01*
G01X34065903Y-324576D01*
G01X34077333Y-336006D01*
G01X34088763Y-341848D01*
G01X34105781Y-341848D01*
G01X34117211Y-336006D01*
G01X34128641Y-324576D01*
G01X34176393Y-261838D02*
G01X34176393Y-341848D01*
G01X34176393Y-296128D02*
G01X34182235Y-278856D01*
G01X34193665Y-267426D01*
G01X34205095Y-261838D01*
G01X34222113Y-261838D01*
G01X34397881Y-221706D02*
G01X34397881Y-341848D01*
G01X34397881Y-221706D02*
G01X34449443Y-221706D01*
G01X34466461Y-227548D01*
G01X34472303Y-233136D01*
G01X34477891Y-244566D01*
G01X34477891Y-261838D01*
G01X34472303Y-273268D01*
G01X34466461Y-278856D01*
G01X34449443Y-284698D01*
G01X34397881Y-284698D01*
G01X34594223Y-261838D02*
G01X34594223Y-341848D01*
G01X34594223Y-278856D02*
G01X34582793Y-267426D01*
G01X34571363Y-261838D01*
G01X34554345Y-261838D01*
G01X34542915Y-267426D01*
G01X34531485Y-278856D01*
G01X34525643Y-296128D01*
G01X34525643Y-307558D01*
G01X34531485Y-324576D01*
G01X34542915Y-336006D01*
G01X34554345Y-341848D01*
G01X34571363Y-341848D01*
G01X34582793Y-336006D01*
G01X34594223Y-324576D01*
G01X34641975Y-221706D02*
G01X34647817Y-227548D01*
G01X34653405Y-221706D01*
G01X34647817Y-216118D01*
G01X34641975Y-221706D01*
G01X34647817Y-261838D02*
G01X34647817Y-341848D01*
G01X34701157Y-261838D02*
G01X34701157Y-341848D01*
G01X34701157Y-296128D02*
G01X34706999Y-278856D01*
G01X34718429Y-267426D01*
G01X34729859Y-261838D01*
G01X34746877Y-261838D01*
G01X21751874Y-825137D02*
G01X21763304Y-819549D01*
G01X21780576Y-802277D01*
G01X21780576Y-922419D01*
G01X23166037Y-825137D02*
G01X23177467Y-819549D01*
G01X23194739Y-802277D01*
G01X23194739Y-922419D01*
G01X23316913Y-842409D02*
G01X23311071Y-859427D01*
G01X23299641Y-870857D01*
G01X23282623Y-876699D01*
G01X23276781Y-876699D01*
G01X23259763Y-870857D01*
G01X23248333Y-859427D01*
G01X23242491Y-842409D01*
G01X23242491Y-836567D01*
G01X23248333Y-819549D01*
G01X23259763Y-808119D01*
G01X23276781Y-802277D01*
G01X23282623Y-802277D01*
G01X23299641Y-808119D01*
G01X23311071Y-819549D01*
G01X23316913Y-842409D01*
G01X23316913Y-870857D01*
G01X23311071Y-899559D01*
G01X23299641Y-916577D01*
G01X23282623Y-922419D01*
G01X23271193Y-922419D01*
G01X23253921Y-916577D01*
G01X23248333Y-905147D01*
G01X23433245Y-819549D02*
G01X23427657Y-808119D01*
G01X23410385Y-802277D01*
G01X23398955Y-802277D01*
G01X23381937Y-808119D01*
G01X23370507Y-825137D01*
G01X23364665Y-853839D01*
G01X23364665Y-882287D01*
G01X23370507Y-905147D01*
G01X23381937Y-916577D01*
G01X23398955Y-922419D01*
G01X23404797Y-922419D01*
G01X23421815Y-916577D01*
G01X23433245Y-905147D01*
G01X23439087Y-888129D01*
G01X23439087Y-882287D01*
G01X23433245Y-865269D01*
G01X23421815Y-853839D01*
G01X23404797Y-847997D01*
G01X23398955Y-847997D01*
G01X23381937Y-853839D01*
G01X23370507Y-865269D01*
G01X23364665Y-882287D01*
G01X23492681Y-893717D02*
G01X23486839Y-899559D01*
G01X23492681Y-905147D01*
G01X23498269Y-899559D01*
G01X23492681Y-893717D01*
G01X23620443Y-842409D02*
G01X23614601Y-859427D01*
G01X23603171Y-870857D01*
G01X23586153Y-876699D01*
G01X23580311Y-876699D01*
G01X23563293Y-870857D01*
G01X23551863Y-859427D01*
G01X23546021Y-842409D01*
G01X23546021Y-836567D01*
G01X23551863Y-819549D01*
G01X23563293Y-808119D01*
G01X23580311Y-802277D01*
G01X23586153Y-802277D01*
G01X23603171Y-808119D01*
G01X23614601Y-819549D01*
G01X23620443Y-842409D01*
G01X23620443Y-870857D01*
G01X23614601Y-899559D01*
G01X23603171Y-916577D01*
G01X23586153Y-922419D01*
G01X23574723Y-922419D01*
G01X23557451Y-916577D01*
G01X23551863Y-905147D01*
G01X23668195Y-842409D02*
G01X23731187Y-922419D01*
G01X23731187Y-842409D02*
G01X23668195Y-922419D01*
G01X23778939Y-825137D02*
G01X23790369Y-819549D01*
G01X23807641Y-802277D01*
G01X23807641Y-922419D01*
G01X23929815Y-842409D02*
G01X23923973Y-859427D01*
G01X23912543Y-870857D01*
G01X23895525Y-876699D01*
G01X23889683Y-876699D01*
G01X23872665Y-870857D01*
G01X23861235Y-859427D01*
G01X23855393Y-842409D01*
G01X23855393Y-836567D01*
G01X23861235Y-819549D01*
G01X23872665Y-808119D01*
G01X23889683Y-802277D01*
G01X23895525Y-802277D01*
G01X23912543Y-808119D01*
G01X23923973Y-819549D01*
G01X23929815Y-842409D01*
G01X23929815Y-870857D01*
G01X23923973Y-899559D01*
G01X23912543Y-916577D01*
G01X23895525Y-922419D01*
G01X23884095Y-922419D01*
G01X23866823Y-916577D01*
G01X23861235Y-905147D01*
G01X24046147Y-819549D02*
G01X24040559Y-808119D01*
G01X24023287Y-802277D01*
G01X24011857Y-802277D01*
G01X23994839Y-808119D01*
G01X23983409Y-825137D01*
G01X23977567Y-853839D01*
G01X23977567Y-882287D01*
G01X23983409Y-905147D01*
G01X23994839Y-916577D01*
G01X24011857Y-922419D01*
G01X24017699Y-922419D01*
G01X24034717Y-916577D01*
G01X24046147Y-905147D01*
G01X24051989Y-888129D01*
G01X24051989Y-882287D01*
G01X24046147Y-865269D01*
G01X24034717Y-853839D01*
G01X24017699Y-847997D01*
G01X24011857Y-847997D01*
G01X23994839Y-853839D01*
G01X23983409Y-865269D01*
G01X23977567Y-882287D01*
G01X24105583Y-893717D02*
G01X24099741Y-899559D01*
G01X24105583Y-905147D01*
G01X24111171Y-899559D01*
G01X24105583Y-893717D01*
G01X24233345Y-842409D02*
G01X24227503Y-859427D01*
G01X24216073Y-870857D01*
G01X24199055Y-876699D01*
G01X24193213Y-876699D01*
G01X24176195Y-870857D01*
G01X24164765Y-859427D01*
G01X24158923Y-842409D01*
G01X24158923Y-836567D01*
G01X24164765Y-819549D01*
G01X24176195Y-808119D01*
G01X24193213Y-802277D01*
G01X24199055Y-802277D01*
G01X24216073Y-808119D01*
G01X24227503Y-819549D01*
G01X24233345Y-842409D01*
G01X24233345Y-870857D01*
G01X24227503Y-899559D01*
G01X24216073Y-916577D01*
G01X24199055Y-922419D01*
G01X24187625Y-922419D01*
G01X24170353Y-916577D01*
G01X24164765Y-905147D01*
G01X24281097Y-842409D02*
G01X24281097Y-922419D01*
G01X24281097Y-865269D02*
G01X24298369Y-847997D01*
G01X24309799Y-842409D01*
G01X24326817Y-842409D01*
G01X24338247Y-847997D01*
G01X24344089Y-865269D01*
G01X24344089Y-922419D01*
G01X24344089Y-865269D02*
G01X24361107Y-847997D01*
G01X24372537Y-842409D01*
G01X24389809Y-842409D01*
G01X24401239Y-847997D01*
G01X24406827Y-865269D01*
G01X24406827Y-922419D01*
G01X24454579Y-802277D02*
G01X24460421Y-808119D01*
G01X24466009Y-802277D01*
G01X24460421Y-796689D01*
G01X24454579Y-802277D01*
G01X24460421Y-842409D02*
G01X24460421Y-922419D01*
G01X24513761Y-802277D02*
G01X24513761Y-922419D01*
G01X24601645Y-779417D02*
G01X24590215Y-790847D01*
G01X24578785Y-808119D01*
G01X24567355Y-830979D01*
G01X24561513Y-859427D01*
G01X24561513Y-882287D01*
G01X24567355Y-910989D01*
G01X24578785Y-933849D01*
G01X24590215Y-950867D01*
G01X24601645Y-962297D01*
G01X24717977Y-802277D02*
G01X24660827Y-802277D01*
G01X24655239Y-853839D01*
G01X24660827Y-847997D01*
G01X24678099Y-842409D01*
G01X24695117Y-842409D01*
G01X24712389Y-847997D01*
G01X24723819Y-859427D01*
G01X24729407Y-876699D01*
G01X24729407Y-888129D01*
G01X24723819Y-905147D01*
G01X24712389Y-916577D01*
G01X24695117Y-922419D01*
G01X24678099Y-922419D01*
G01X24660827Y-916577D01*
G01X24655239Y-910989D01*
G01X24649397Y-899559D01*
G01X24783001Y-893717D02*
G01X24777159Y-899559D01*
G01X24783001Y-905147D01*
G01X24788589Y-899559D01*
G01X24783001Y-893717D01*
G01X24870631Y-802277D02*
G01X24853613Y-808119D01*
G01X24842183Y-825137D01*
G01X24836341Y-853839D01*
G01X24836341Y-870857D01*
G01X24842183Y-899559D01*
G01X24853613Y-916577D01*
G01X24870631Y-922419D01*
G01X24882061Y-922419D01*
G01X24899333Y-916577D01*
G01X24910763Y-899559D01*
G01X24916351Y-870857D01*
G01X24916351Y-853839D01*
G01X24910763Y-825137D01*
G01X24899333Y-808119D01*
G01X24882061Y-802277D01*
G01X24870631Y-802277D01*
G01X24998393Y-802277D02*
G01X24981375Y-808119D01*
G01X24969945Y-825137D01*
G01X24964103Y-853839D01*
G01X24964103Y-870857D01*
G01X24969945Y-899559D01*
G01X24981375Y-916577D01*
G01X24998393Y-922419D01*
G01X25009823Y-922419D01*
G01X25027095Y-916577D01*
G01X25038525Y-899559D01*
G01X25044113Y-870857D01*
G01X25044113Y-853839D01*
G01X25038525Y-825137D01*
G01X25027095Y-808119D01*
G01X25009823Y-802277D01*
G01X24998393Y-802277D01*
G01X25126155Y-802277D02*
G01X25109137Y-808119D01*
G01X25097707Y-825137D01*
G01X25091865Y-853839D01*
G01X25091865Y-870857D01*
G01X25097707Y-899559D01*
G01X25109137Y-916577D01*
G01X25126155Y-922419D01*
G01X25137585Y-922419D01*
G01X25154857Y-916577D01*
G01X25166287Y-899559D01*
G01X25171875Y-870857D01*
G01X25171875Y-853839D01*
G01X25166287Y-825137D01*
G01X25154857Y-808119D01*
G01X25137585Y-802277D01*
G01X25126155Y-802277D01*
G01X25219627Y-842409D02*
G01X25282619Y-922419D01*
G01X25282619Y-842409D02*
G01X25219627Y-922419D01*
G01X25398951Y-802277D02*
G01X25341801Y-802277D01*
G01X25336213Y-853839D01*
G01X25341801Y-847997D01*
G01X25359073Y-842409D01*
G01X25376091Y-842409D01*
G01X25393363Y-847997D01*
G01X25404793Y-859427D01*
G01X25410381Y-876699D01*
G01X25410381Y-888129D01*
G01X25404793Y-905147D01*
G01X25393363Y-916577D01*
G01X25376091Y-922419D01*
G01X25359073Y-922419D01*
G01X25341801Y-916577D01*
G01X25336213Y-910989D01*
G01X25330371Y-899559D01*
G01X25463975Y-893717D02*
G01X25458133Y-899559D01*
G01X25463975Y-905147D01*
G01X25469563Y-899559D01*
G01X25463975Y-893717D01*
G01X25551605Y-802277D02*
G01X25534587Y-808119D01*
G01X25523157Y-825137D01*
G01X25517315Y-853839D01*
G01X25517315Y-870857D01*
G01X25523157Y-899559D01*
G01X25534587Y-916577D01*
G01X25551605Y-922419D01*
G01X25563035Y-922419D01*
G01X25580307Y-916577D01*
G01X25591737Y-899559D01*
G01X25597325Y-870857D01*
G01X25597325Y-853839D01*
G01X25591737Y-825137D01*
G01X25580307Y-808119D01*
G01X25563035Y-802277D01*
G01X25551605Y-802277D01*
G01X25679367Y-802277D02*
G01X25662349Y-808119D01*
G01X25650919Y-825137D01*
G01X25645077Y-853839D01*
G01X25645077Y-870857D01*
G01X25650919Y-899559D01*
G01X25662349Y-916577D01*
G01X25679367Y-922419D01*
G01X25690797Y-922419D01*
G01X25708069Y-916577D01*
G01X25719499Y-899559D01*
G01X25725087Y-870857D01*
G01X25725087Y-853839D01*
G01X25719499Y-825137D01*
G01X25708069Y-808119D01*
G01X25690797Y-802277D01*
G01X25679367Y-802277D01*
G01X25807129Y-802277D02*
G01X25790111Y-808119D01*
G01X25778681Y-825137D01*
G01X25772839Y-853839D01*
G01X25772839Y-870857D01*
G01X25778681Y-899559D01*
G01X25790111Y-916577D01*
G01X25807129Y-922419D01*
G01X25818559Y-922419D01*
G01X25835831Y-916577D01*
G01X25847261Y-899559D01*
G01X25852849Y-870857D01*
G01X25852849Y-853839D01*
G01X25847261Y-825137D01*
G01X25835831Y-808119D01*
G01X25818559Y-802277D01*
G01X25807129Y-802277D01*
G01X25900601Y-842409D02*
G01X25900601Y-922419D01*
G01X25900601Y-865269D02*
G01X25917873Y-847997D01*
G01X25929303Y-842409D01*
G01X25946321Y-842409D01*
G01X25957751Y-847997D01*
G01X25963593Y-865269D01*
G01X25963593Y-922419D01*
G01X25963593Y-865269D02*
G01X25980611Y-847997D01*
G01X25992041Y-842409D01*
G01X26009313Y-842409D01*
G01X26020743Y-847997D01*
G01X26026331Y-865269D01*
G01X26026331Y-922419D01*
G01X26074083Y-842409D02*
G01X26074083Y-922419D01*
G01X26074083Y-865269D02*
G01X26091355Y-847997D01*
G01X26102785Y-842409D01*
G01X26119803Y-842409D01*
G01X26131233Y-847997D01*
G01X26137075Y-865269D01*
G01X26137075Y-922419D01*
G01X26137075Y-865269D02*
G01X26154093Y-847997D01*
G01X26165523Y-842409D01*
G01X26182795Y-842409D01*
G01X26194225Y-847997D01*
G01X26199813Y-865269D01*
G01X26199813Y-922419D01*
G01X26247565Y-779417D02*
G01X26258995Y-790847D01*
G01X26270425Y-808119D01*
G01X26281855Y-830979D01*
G01X26287697Y-859427D01*
G01X26287697Y-882287D01*
G01X26281855Y-910989D01*
G01X26270425Y-933849D01*
G01X26258995Y-950867D01*
G01X26247565Y-962297D01*
G01X27224087Y-802277D02*
G01X27224087Y-922419D01*
G01X27224087Y-802277D02*
G01X27275649Y-802277D01*
G01X27292667Y-808119D01*
G01X27298509Y-813707D01*
G01X27304097Y-825137D01*
G01X27304097Y-842409D01*
G01X27298509Y-853839D01*
G01X27292667Y-859427D01*
G01X27275649Y-865269D01*
G01X27224087Y-865269D01*
G01X27391981Y-802277D02*
G01X27391981Y-922419D01*
G01X27351849Y-802277D02*
G01X27431859Y-802277D01*
G01X27479611Y-802277D02*
G01X27479611Y-922419D01*
G01X27559621Y-802277D02*
G01X27559621Y-922419D01*
G01X27479611Y-859427D02*
G01X27559621Y-859427D01*
G01X28685494Y-802277D02*
G01X28685494Y-922419D01*
G01X28685494Y-802277D02*
G01X28737056Y-802277D01*
G01X28754074Y-808119D01*
G01X28759916Y-813707D01*
G01X28765504Y-825137D01*
G01X28765504Y-836567D01*
G01X28759916Y-847997D01*
G01X28754074Y-853839D01*
G01X28737056Y-859427D01*
G01X28685494Y-859427D01*
G01X28725626Y-859427D02*
G01X28765504Y-922419D01*
G01X28841958Y-842409D02*
G01X28830528Y-847997D01*
G01X28819098Y-859427D01*
G01X28813256Y-876699D01*
G01X28813256Y-888129D01*
G01X28819098Y-905147D01*
G01X28830528Y-916577D01*
G01X28841958Y-922419D01*
G01X28858976Y-922419D01*
G01X28870406Y-916577D01*
G01X28881836Y-905147D01*
G01X28887678Y-888129D01*
G01X28887678Y-876699D01*
G01X28881836Y-859427D01*
G01X28870406Y-847997D01*
G01X28858976Y-842409D01*
G01X28841958Y-842409D01*
G01X28935430Y-842409D02*
G01X28935430Y-899559D01*
G01X28941272Y-916577D01*
G01X28952702Y-922419D01*
G01X28969720Y-922419D01*
G01X28981150Y-916577D01*
G01X28998422Y-899559D01*
G01X28998422Y-842409D02*
G01X28998422Y-922419D01*
G01X29046174Y-842409D02*
G01X29046174Y-922419D01*
G01X29046174Y-865269D02*
G01X29063446Y-847997D01*
G01X29074876Y-842409D01*
G01X29091894Y-842409D01*
G01X29103324Y-847997D01*
G01X29109166Y-865269D01*
G01X29109166Y-922419D01*
G01X29225498Y-802277D02*
G01X29225498Y-922419D01*
G01X29225498Y-859427D02*
G01X29214068Y-847997D01*
G01X29202638Y-842409D01*
G01X29185620Y-842409D01*
G01X29174190Y-847997D01*
G01X29162760Y-859427D01*
G01X29156918Y-876699D01*
G01X29156918Y-888129D01*
G01X29162760Y-905147D01*
G01X29174190Y-916577D01*
G01X29185620Y-922419D01*
G01X29202638Y-922419D01*
G01X29214068Y-916577D01*
G01X29225498Y-905147D01*
G01X30116675Y-802277D02*
G01X30116675Y-922419D01*
G01X30116675Y-802277D02*
G01X30168237Y-802277D01*
G01X30185255Y-808119D01*
G01X30191097Y-813707D01*
G01X30196685Y-825137D01*
G01X30196685Y-842409D01*
G01X30191097Y-853839D01*
G01X30185255Y-859427D01*
G01X30168237Y-865269D01*
G01X30116675Y-865269D01*
G01X30313017Y-842409D02*
G01X30313017Y-922419D01*
G01X30313017Y-859427D02*
G01X30301587Y-847997D01*
G01X30290157Y-842409D01*
G01X30273139Y-842409D01*
G01X30261709Y-847997D01*
G01X30250279Y-859427D01*
G01X30244437Y-876699D01*
G01X30244437Y-888129D01*
G01X30250279Y-905147D01*
G01X30261709Y-916577D01*
G01X30273139Y-922419D01*
G01X30290157Y-922419D01*
G01X30301587Y-916577D01*
G01X30313017Y-905147D01*
G01X30429349Y-802277D02*
G01X30429349Y-922419D01*
G01X30429349Y-859427D02*
G01X30417919Y-847997D01*
G01X30406489Y-842409D01*
G01X30389471Y-842409D01*
G01X30378041Y-847997D01*
G01X30366611Y-859427D01*
G01X30360769Y-876699D01*
G01X30360769Y-888129D01*
G01X30366611Y-905147D01*
G01X30378041Y-916577D01*
G01X30389471Y-922419D01*
G01X30406489Y-922419D01*
G01X30417919Y-916577D01*
G01X30429349Y-905147D01*
G01X31785854Y-802277D02*
G01X31785854Y-922419D01*
G01X31785854Y-802277D02*
G01X31837416Y-802277D01*
G01X31854434Y-808119D01*
G01X31860276Y-813707D01*
G01X31865864Y-825137D01*
G01X31865864Y-836567D01*
G01X31860276Y-847997D01*
G01X31854434Y-853839D01*
G01X31837416Y-859427D01*
G01X31785854Y-859427D01*
G01X31825986Y-859427D02*
G01X31865864Y-922419D01*
G01X31942318Y-842409D02*
G01X31930888Y-847997D01*
G01X31919458Y-859427D01*
G01X31913616Y-876699D01*
G01X31913616Y-888129D01*
G01X31919458Y-905147D01*
G01X31930888Y-916577D01*
G01X31942318Y-922419D01*
G01X31959336Y-922419D01*
G01X31970766Y-916577D01*
G01X31982196Y-905147D01*
G01X31988038Y-888129D01*
G01X31988038Y-876699D01*
G01X31982196Y-859427D01*
G01X31970766Y-847997D01*
G01X31959336Y-842409D01*
G01X31942318Y-842409D01*
G01X32035790Y-842409D02*
G01X32035790Y-899559D01*
G01X32041632Y-916577D01*
G01X32053062Y-922419D01*
G01X32070080Y-922419D01*
G01X32081510Y-916577D01*
G01X32098782Y-899559D01*
G01X32098782Y-842409D02*
G01X32098782Y-922419D01*
G01X32146534Y-842409D02*
G01X32146534Y-922419D01*
G01X32146534Y-865269D02*
G01X32163806Y-847997D01*
G01X32175236Y-842409D01*
G01X32192254Y-842409D01*
G01X32203684Y-847997D01*
G01X32209526Y-865269D01*
G01X32209526Y-922419D01*
G01X32325858Y-802277D02*
G01X32325858Y-922419D01*
G01X32325858Y-859427D02*
G01X32314428Y-847997D01*
G01X32302998Y-842409D01*
G01X32285980Y-842409D01*
G01X32274550Y-847997D01*
G01X32263120Y-859427D01*
G01X32257278Y-876699D01*
G01X32257278Y-888129D01*
G01X32263120Y-905147D01*
G01X32274550Y-916577D01*
G01X32285980Y-922419D01*
G01X32302998Y-922419D01*
G01X32314428Y-916577D01*
G01X32325858Y-905147D01*
G01X33745355Y-802277D02*
G01X33745355Y-922419D01*
G01X33705223Y-802277D02*
G01X33785233Y-802277D01*
G01X33861687Y-842409D02*
G01X33850257Y-847997D01*
G01X33838827Y-859427D01*
G01X33832985Y-876699D01*
G01X33832985Y-888129D01*
G01X33838827Y-905147D01*
G01X33850257Y-916577D01*
G01X33861687Y-922419D01*
G01X33878705Y-922419D01*
G01X33890135Y-916577D01*
G01X33901565Y-905147D01*
G01X33907407Y-888129D01*
G01X33907407Y-876699D01*
G01X33901565Y-859427D01*
G01X33890135Y-847997D01*
G01X33878705Y-842409D01*
G01X33861687Y-842409D01*
G01X33955159Y-842409D02*
G01X33955159Y-962297D01*
G01X33955159Y-859427D02*
G01X33966589Y-847997D01*
G01X33978019Y-842409D01*
G01X33995291Y-842409D01*
G01X34006721Y-847997D01*
G01X34018151Y-859427D01*
G01X34023739Y-876699D01*
G01X34023739Y-888129D01*
G01X34018151Y-905147D01*
G01X34006721Y-916577D01*
G01X33995291Y-922419D01*
G01X33978019Y-922419D01*
G01X33966589Y-916577D01*
G01X33955159Y-905147D01*
G01X34199507Y-802277D02*
G01X34199507Y-922419D01*
G01X34199507Y-922419D02*
G01X34268087Y-922419D01*
G01X34384419Y-842409D02*
G01X34384419Y-922419D01*
G01X34384419Y-859427D02*
G01X34372989Y-847997D01*
G01X34361559Y-842409D01*
G01X34344541Y-842409D01*
G01X34333111Y-847997D01*
G01X34321681Y-859427D01*
G01X34315839Y-876699D01*
G01X34315839Y-888129D01*
G01X34321681Y-905147D01*
G01X34333111Y-916577D01*
G01X34344541Y-922419D01*
G01X34361559Y-922419D01*
G01X34372989Y-916577D01*
G01X34384419Y-905147D01*
G01X34438013Y-842409D02*
G01X34472303Y-922419D01*
G01X34506593Y-842409D02*
G01X34472303Y-922419D01*
G01X34460873Y-945279D01*
G01X34449443Y-956709D01*
G01X34438013Y-962297D01*
G01X34432171Y-962297D01*
G01X34554345Y-876699D02*
G01X34622925Y-876699D01*
G01X34622925Y-865269D01*
G01X34617337Y-853839D01*
G01X34611495Y-847997D01*
G01X34600065Y-842409D01*
G01X34583047Y-842409D01*
G01X34571617Y-847997D01*
G01X34560187Y-859427D01*
G01X34554345Y-876699D01*
G01X34554345Y-888129D01*
G01X34560187Y-905147D01*
G01X34571617Y-916577D01*
G01X34583047Y-922419D01*
G01X34600065Y-922419D01*
G01X34611495Y-916577D01*
G01X34622925Y-905147D01*
G01X34670677Y-842409D02*
G01X34670677Y-922419D01*
G01X34670677Y-876699D02*
G01X34676519Y-859427D01*
G01X34687949Y-847997D01*
G01X34699379Y-842409D01*
G01X34716397Y-842409D01*
G01X34764149Y-870857D02*
G01X34867019Y-870857D01*
G01X34914771Y-802277D02*
G01X34914771Y-922419D01*
G01X34914771Y-802277D02*
G01X34966333Y-802277D01*
G01X34983351Y-808119D01*
G01X34989193Y-813707D01*
G01X34994781Y-825137D01*
G01X34994781Y-836567D01*
G01X34989193Y-847997D01*
G01X34983351Y-853839D01*
G01X34966333Y-859427D01*
G01X34914771Y-859427D02*
G01X34966333Y-859427D01*
G01X34983351Y-865269D01*
G01X34989193Y-870857D01*
G01X34994781Y-882287D01*
G01X34994781Y-899559D01*
G01X34989193Y-910989D01*
G01X34983351Y-916577D01*
G01X34966333Y-922419D01*
G01X34914771Y-922419D01*
G01X35071235Y-842409D02*
G01X35059805Y-847997D01*
G01X35048375Y-859427D01*
G01X35042533Y-876699D01*
G01X35042533Y-888129D01*
G01X35048375Y-905147D01*
G01X35059805Y-916577D01*
G01X35071235Y-922419D01*
G01X35088253Y-922419D01*
G01X35099683Y-916577D01*
G01X35111113Y-905147D01*
G01X35116955Y-888129D01*
G01X35116955Y-876699D01*
G01X35111113Y-859427D01*
G01X35099683Y-847997D01*
G01X35088253Y-842409D01*
G01X35071235Y-842409D01*
G01X35181979Y-802277D02*
G01X35181979Y-899559D01*
G01X35187567Y-916577D01*
G01X35198997Y-922419D01*
G01X35210427Y-922419D01*
G01X35164707Y-842409D02*
G01X35204839Y-842409D01*
G01X35275451Y-802277D02*
G01X35275451Y-899559D01*
G01X35281039Y-916577D01*
G01X35292469Y-922419D01*
G01X35303899Y-922419D01*
G01X35258179Y-842409D02*
G01X35298311Y-842409D01*
G01X35380353Y-842409D02*
G01X35368923Y-847997D01*
G01X35357493Y-859427D01*
G01X35351651Y-876699D01*
G01X35351651Y-888129D01*
G01X35357493Y-905147D01*
G01X35368923Y-916577D01*
G01X35380353Y-922419D01*
G01X35397371Y-922419D01*
G01X35408801Y-916577D01*
G01X35420231Y-905147D01*
G01X35426073Y-888129D01*
G01X35426073Y-876699D01*
G01X35420231Y-859427D01*
G01X35408801Y-847997D01*
G01X35397371Y-842409D01*
G01X35380353Y-842409D01*
G01X35473825Y-842409D02*
G01X35473825Y-922419D01*
G01X35473825Y-865269D02*
G01X35491097Y-847997D01*
G01X35502527Y-842409D01*
G01X35519545Y-842409D01*
G01X35530975Y-847997D01*
G01X35536817Y-865269D01*
G01X35536817Y-922419D01*
G01X35536817Y-865269D02*
G01X35553835Y-847997D01*
G01X35565265Y-842409D01*
G01X35582537Y-842409D01*
G01X35593967Y-847997D01*
G01X35599555Y-865269D01*
G01X35599555Y-922419D01*
G01X35775323Y-802277D02*
G01X35775323Y-922419D01*
G01X35775323Y-922419D02*
G01X35843903Y-922419D01*
G01X35960235Y-842409D02*
G01X35960235Y-922419D01*
G01X35960235Y-859427D02*
G01X35948805Y-847997D01*
G01X35937375Y-842409D01*
G01X35920357Y-842409D01*
G01X35908927Y-847997D01*
G01X35897497Y-859427D01*
G01X35891655Y-876699D01*
G01X35891655Y-888129D01*
G01X35897497Y-905147D01*
G01X35908927Y-916577D01*
G01X35920357Y-922419D01*
G01X35937375Y-922419D01*
G01X35948805Y-916577D01*
G01X35960235Y-905147D01*
G01X36013829Y-842409D02*
G01X36048119Y-922419D01*
G01X36082409Y-842409D02*
G01X36048119Y-922419D01*
G01X36036689Y-945279D01*
G01X36025259Y-956709D01*
G01X36013829Y-962297D01*
G01X36007987Y-962297D01*
G01X36130161Y-876699D02*
G01X36198741Y-876699D01*
G01X36198741Y-865269D01*
G01X36193153Y-853839D01*
G01X36187311Y-847997D01*
G01X36175881Y-842409D01*
G01X36158863Y-842409D01*
G01X36147433Y-847997D01*
G01X36136003Y-859427D01*
G01X36130161Y-876699D01*
G01X36130161Y-888129D01*
G01X36136003Y-905147D01*
G01X36147433Y-916577D01*
G01X36158863Y-922419D01*
G01X36175881Y-922419D01*
G01X36187311Y-916577D01*
G01X36198741Y-905147D01*
G01X36246493Y-842409D02*
G01X36246493Y-922419D01*
G01X36246493Y-876699D02*
G01X36252335Y-859427D01*
G01X36263765Y-847997D01*
G01X36275195Y-842409D01*
G01X36292213Y-842409D01*
G01X21751874Y-1405709D02*
G01X21763304Y-1400121D01*
G01X21780576Y-1382849D01*
G01X21780576Y-1502991D01*
G01X23166037Y-1405709D02*
G01X23177467Y-1400121D01*
G01X23194739Y-1382849D01*
G01X23194739Y-1502991D01*
G01X23311071Y-1382849D02*
G01X23253921Y-1382849D01*
G01X23248333Y-1434411D01*
G01X23253921Y-1428569D01*
G01X23271193Y-1422981D01*
G01X23288211Y-1422981D01*
G01X23305483Y-1428569D01*
G01X23316913Y-1439999D01*
G01X23322501Y-1457271D01*
G01X23322501Y-1468701D01*
G01X23316913Y-1485719D01*
G01X23305483Y-1497149D01*
G01X23288211Y-1502991D01*
G01X23271193Y-1502991D01*
G01X23253921Y-1497149D01*
G01X23248333Y-1491561D01*
G01X23242491Y-1480131D01*
G01X23450263Y-1382849D02*
G01X23393113Y-1502991D01*
G01X23370253Y-1382849D02*
G01X23450263Y-1382849D01*
G01X23503857Y-1474289D02*
G01X23498015Y-1480131D01*
G01X23503857Y-1485719D01*
G01X23509445Y-1480131D01*
G01X23503857Y-1474289D01*
G01X23625777Y-1382849D02*
G01X23568627Y-1382849D01*
G01X23563039Y-1434411D01*
G01X23568627Y-1428569D01*
G01X23585899Y-1422981D01*
G01X23602917Y-1422981D01*
G01X23620189Y-1428569D01*
G01X23631619Y-1439999D01*
G01X23637207Y-1457271D01*
G01X23637207Y-1468701D01*
G01X23631619Y-1485719D01*
G01X23620189Y-1497149D01*
G01X23602917Y-1502991D01*
G01X23585899Y-1502991D01*
G01X23568627Y-1497149D01*
G01X23563039Y-1491561D01*
G01X23557197Y-1480131D01*
G01X23684959Y-1422981D02*
G01X23747951Y-1502991D01*
G01X23747951Y-1422981D02*
G01X23684959Y-1502991D01*
G01X23795703Y-1405709D02*
G01X23807133Y-1400121D01*
G01X23824405Y-1382849D01*
G01X23824405Y-1502991D01*
G01X23940737Y-1382849D02*
G01X23883587Y-1382849D01*
G01X23877999Y-1434411D01*
G01X23883587Y-1428569D01*
G01X23900859Y-1422981D01*
G01X23917877Y-1422981D01*
G01X23935149Y-1428569D01*
G01X23946579Y-1439999D01*
G01X23952167Y-1457271D01*
G01X23952167Y-1468701D01*
G01X23946579Y-1485719D01*
G01X23935149Y-1497149D01*
G01X23917877Y-1502991D01*
G01X23900859Y-1502991D01*
G01X23883587Y-1497149D01*
G01X23877999Y-1491561D01*
G01X23872157Y-1480131D01*
G01X24079929Y-1382849D02*
G01X24022779Y-1502991D01*
G01X23999919Y-1382849D02*
G01X24079929Y-1382849D01*
G01X24133523Y-1474289D02*
G01X24127681Y-1480131D01*
G01X24133523Y-1485719D01*
G01X24139111Y-1480131D01*
G01X24133523Y-1474289D01*
G01X24255443Y-1382849D02*
G01X24198293Y-1382849D01*
G01X24192705Y-1434411D01*
G01X24198293Y-1428569D01*
G01X24215565Y-1422981D01*
G01X24232583Y-1422981D01*
G01X24249855Y-1428569D01*
G01X24261285Y-1439999D01*
G01X24266873Y-1457271D01*
G01X24266873Y-1468701D01*
G01X24261285Y-1485719D01*
G01X24249855Y-1497149D01*
G01X24232583Y-1502991D01*
G01X24215565Y-1502991D01*
G01X24198293Y-1497149D01*
G01X24192705Y-1491561D01*
G01X24186863Y-1480131D01*
G01X24314625Y-1422981D02*
G01X24314625Y-1502991D01*
G01X24314625Y-1445841D02*
G01X24331897Y-1428569D01*
G01X24343327Y-1422981D01*
G01X24360345Y-1422981D01*
G01X24371775Y-1428569D01*
G01X24377617Y-1445841D01*
G01X24377617Y-1502991D01*
G01X24377617Y-1445841D02*
G01X24394635Y-1428569D01*
G01X24406065Y-1422981D01*
G01X24423337Y-1422981D01*
G01X24434767Y-1428569D01*
G01X24440355Y-1445841D01*
G01X24440355Y-1502991D01*
G01X24488107Y-1382849D02*
G01X24493949Y-1388691D01*
G01X24499537Y-1382849D01*
G01X24493949Y-1377261D01*
G01X24488107Y-1382849D01*
G01X24493949Y-1422981D02*
G01X24493949Y-1502991D01*
G01X24547289Y-1382849D02*
G01X24547289Y-1502991D01*
G01X24635173Y-1359989D02*
G01X24623743Y-1371419D01*
G01X24612313Y-1388691D01*
G01X24600883Y-1411551D01*
G01X24595041Y-1439999D01*
G01X24595041Y-1462859D01*
G01X24600883Y-1491561D01*
G01X24612313Y-1514421D01*
G01X24623743Y-1531439D01*
G01X24635173Y-1542869D01*
G01X24740075Y-1382849D02*
G01X24682925Y-1462859D01*
G01X24768777Y-1462859D01*
G01X24740075Y-1382849D02*
G01X24740075Y-1502991D01*
G01X24822371Y-1474289D02*
G01X24816529Y-1480131D01*
G01X24822371Y-1485719D01*
G01X24827959Y-1480131D01*
G01X24822371Y-1474289D01*
G01X24910001Y-1382849D02*
G01X24892983Y-1388691D01*
G01X24881553Y-1405709D01*
G01X24875711Y-1434411D01*
G01X24875711Y-1451429D01*
G01X24881553Y-1480131D01*
G01X24892983Y-1497149D01*
G01X24910001Y-1502991D01*
G01X24921431Y-1502991D01*
G01X24938703Y-1497149D01*
G01X24950133Y-1480131D01*
G01X24955721Y-1451429D01*
G01X24955721Y-1434411D01*
G01X24950133Y-1405709D01*
G01X24938703Y-1388691D01*
G01X24921431Y-1382849D01*
G01X24910001Y-1382849D01*
G01X25037763Y-1382849D02*
G01X25020745Y-1388691D01*
G01X25009315Y-1405709D01*
G01X25003473Y-1434411D01*
G01X25003473Y-1451429D01*
G01X25009315Y-1480131D01*
G01X25020745Y-1497149D01*
G01X25037763Y-1502991D01*
G01X25049193Y-1502991D01*
G01X25066465Y-1497149D01*
G01X25077895Y-1480131D01*
G01X25083483Y-1451429D01*
G01X25083483Y-1434411D01*
G01X25077895Y-1405709D01*
G01X25066465Y-1388691D01*
G01X25049193Y-1382849D01*
G01X25037763Y-1382849D01*
G01X25165525Y-1382849D02*
G01X25148507Y-1388691D01*
G01X25137077Y-1405709D01*
G01X25131235Y-1434411D01*
G01X25131235Y-1451429D01*
G01X25137077Y-1480131D01*
G01X25148507Y-1497149D01*
G01X25165525Y-1502991D01*
G01X25176955Y-1502991D01*
G01X25194227Y-1497149D01*
G01X25205657Y-1480131D01*
G01X25211245Y-1451429D01*
G01X25211245Y-1434411D01*
G01X25205657Y-1405709D01*
G01X25194227Y-1388691D01*
G01X25176955Y-1382849D01*
G01X25165525Y-1382849D01*
G01X25258997Y-1422981D02*
G01X25321989Y-1502991D01*
G01X25321989Y-1422981D02*
G01X25258997Y-1502991D01*
G01X25426891Y-1382849D02*
G01X25369741Y-1462859D01*
G01X25455593Y-1462859D01*
G01X25426891Y-1382849D02*
G01X25426891Y-1502991D01*
G01X25509187Y-1474289D02*
G01X25503345Y-1480131D01*
G01X25509187Y-1485719D01*
G01X25514775Y-1480131D01*
G01X25509187Y-1474289D01*
G01X25596817Y-1382849D02*
G01X25579799Y-1388691D01*
G01X25568369Y-1405709D01*
G01X25562527Y-1434411D01*
G01X25562527Y-1451429D01*
G01X25568369Y-1480131D01*
G01X25579799Y-1497149D01*
G01X25596817Y-1502991D01*
G01X25608247Y-1502991D01*
G01X25625519Y-1497149D01*
G01X25636949Y-1480131D01*
G01X25642537Y-1451429D01*
G01X25642537Y-1434411D01*
G01X25636949Y-1405709D01*
G01X25625519Y-1388691D01*
G01X25608247Y-1382849D01*
G01X25596817Y-1382849D01*
G01X25724579Y-1382849D02*
G01X25707561Y-1388691D01*
G01X25696131Y-1405709D01*
G01X25690289Y-1434411D01*
G01X25690289Y-1451429D01*
G01X25696131Y-1480131D01*
G01X25707561Y-1497149D01*
G01X25724579Y-1502991D01*
G01X25736009Y-1502991D01*
G01X25753281Y-1497149D01*
G01X25764711Y-1480131D01*
G01X25770299Y-1451429D01*
G01X25770299Y-1434411D01*
G01X25764711Y-1405709D01*
G01X25753281Y-1388691D01*
G01X25736009Y-1382849D01*
G01X25724579Y-1382849D01*
G01X25852341Y-1382849D02*
G01X25835323Y-1388691D01*
G01X25823893Y-1405709D01*
G01X25818051Y-1434411D01*
G01X25818051Y-1451429D01*
G01X25823893Y-1480131D01*
G01X25835323Y-1497149D01*
G01X25852341Y-1502991D01*
G01X25863771Y-1502991D01*
G01X25881043Y-1497149D01*
G01X25892473Y-1480131D01*
G01X25898061Y-1451429D01*
G01X25898061Y-1434411D01*
G01X25892473Y-1405709D01*
G01X25881043Y-1388691D01*
G01X25863771Y-1382849D01*
G01X25852341Y-1382849D01*
G01X25945813Y-1422981D02*
G01X25945813Y-1502991D01*
G01X25945813Y-1445841D02*
G01X25963085Y-1428569D01*
G01X25974515Y-1422981D01*
G01X25991533Y-1422981D01*
G01X26002963Y-1428569D01*
G01X26008805Y-1445841D01*
G01X26008805Y-1502991D01*
G01X26008805Y-1445841D02*
G01X26025823Y-1428569D01*
G01X26037253Y-1422981D01*
G01X26054525Y-1422981D01*
G01X26065955Y-1428569D01*
G01X26071543Y-1445841D01*
G01X26071543Y-1502991D01*
G01X26119295Y-1422981D02*
G01X26119295Y-1502991D01*
G01X26119295Y-1445841D02*
G01X26136567Y-1428569D01*
G01X26147997Y-1422981D01*
G01X26165015Y-1422981D01*
G01X26176445Y-1428569D01*
G01X26182287Y-1445841D01*
G01X26182287Y-1502991D01*
G01X26182287Y-1445841D02*
G01X26199305Y-1428569D01*
G01X26210735Y-1422981D01*
G01X26228007Y-1422981D01*
G01X26239437Y-1428569D01*
G01X26245025Y-1445841D01*
G01X26245025Y-1502991D01*
G01X26292777Y-1359989D02*
G01X26304207Y-1371419D01*
G01X26315637Y-1388691D01*
G01X26327067Y-1411551D01*
G01X26332909Y-1439999D01*
G01X26332909Y-1462859D01*
G01X26327067Y-1491561D01*
G01X26315637Y-1514421D01*
G01X26304207Y-1531439D01*
G01X26292777Y-1542869D01*
G01X27224087Y-1382849D02*
G01X27224087Y-1502991D01*
G01X27224087Y-1382849D02*
G01X27275649Y-1382849D01*
G01X27292667Y-1388691D01*
G01X27298509Y-1394279D01*
G01X27304097Y-1405709D01*
G01X27304097Y-1422981D01*
G01X27298509Y-1434411D01*
G01X27292667Y-1439999D01*
G01X27275649Y-1445841D01*
G01X27224087Y-1445841D01*
G01X27391981Y-1382849D02*
G01X27391981Y-1502991D01*
G01X27351849Y-1382849D02*
G01X27431859Y-1382849D01*
G01X27479611Y-1382849D02*
G01X27479611Y-1502991D01*
G01X27559621Y-1382849D02*
G01X27559621Y-1502991D01*
G01X27479611Y-1439999D02*
G01X27559621Y-1439999D01*
G01X28685494Y-1382849D02*
G01X28685494Y-1502991D01*
G01X28685494Y-1382849D02*
G01X28737056Y-1382849D01*
G01X28754074Y-1388691D01*
G01X28759916Y-1394279D01*
G01X28765504Y-1405709D01*
G01X28765504Y-1417139D01*
G01X28759916Y-1428569D01*
G01X28754074Y-1434411D01*
G01X28737056Y-1439999D01*
G01X28685494Y-1439999D01*
G01X28725626Y-1439999D02*
G01X28765504Y-1502991D01*
G01X28841958Y-1422981D02*
G01X28830528Y-1428569D01*
G01X28819098Y-1439999D01*
G01X28813256Y-1457271D01*
G01X28813256Y-1468701D01*
G01X28819098Y-1485719D01*
G01X28830528Y-1497149D01*
G01X28841958Y-1502991D01*
G01X28858976Y-1502991D01*
G01X28870406Y-1497149D01*
G01X28881836Y-1485719D01*
G01X28887678Y-1468701D01*
G01X28887678Y-1457271D01*
G01X28881836Y-1439999D01*
G01X28870406Y-1428569D01*
G01X28858976Y-1422981D01*
G01X28841958Y-1422981D01*
G01X28935430Y-1422981D02*
G01X28935430Y-1480131D01*
G01X28941272Y-1497149D01*
G01X28952702Y-1502991D01*
G01X28969720Y-1502991D01*
G01X28981150Y-1497149D01*
G01X28998422Y-1480131D01*
G01X28998422Y-1422981D02*
G01X28998422Y-1502991D01*
G01X29046174Y-1422981D02*
G01X29046174Y-1502991D01*
G01X29046174Y-1445841D02*
G01X29063446Y-1428569D01*
G01X29074876Y-1422981D01*
G01X29091894Y-1422981D01*
G01X29103324Y-1428569D01*
G01X29109166Y-1445841D01*
G01X29109166Y-1502991D01*
G01X29225498Y-1382849D02*
G01X29225498Y-1502991D01*
G01X29225498Y-1439999D02*
G01X29214068Y-1428569D01*
G01X29202638Y-1422981D01*
G01X29185620Y-1422981D01*
G01X29174190Y-1428569D01*
G01X29162760Y-1439999D01*
G01X29156918Y-1457271D01*
G01X29156918Y-1468701D01*
G01X29162760Y-1485719D01*
G01X29174190Y-1497149D01*
G01X29185620Y-1502991D01*
G01X29202638Y-1502991D01*
G01X29214068Y-1497149D01*
G01X29225498Y-1485719D01*
G01X30116675Y-1382849D02*
G01X30116675Y-1502991D01*
G01X30116675Y-1382849D02*
G01X30168237Y-1382849D01*
G01X30185255Y-1388691D01*
G01X30191097Y-1394279D01*
G01X30196685Y-1405709D01*
G01X30196685Y-1422981D01*
G01X30191097Y-1434411D01*
G01X30185255Y-1439999D01*
G01X30168237Y-1445841D01*
G01X30116675Y-1445841D01*
G01X30313017Y-1422981D02*
G01X30313017Y-1502991D01*
G01X30313017Y-1439999D02*
G01X30301587Y-1428569D01*
G01X30290157Y-1422981D01*
G01X30273139Y-1422981D01*
G01X30261709Y-1428569D01*
G01X30250279Y-1439999D01*
G01X30244437Y-1457271D01*
G01X30244437Y-1468701D01*
G01X30250279Y-1485719D01*
G01X30261709Y-1497149D01*
G01X30273139Y-1502991D01*
G01X30290157Y-1502991D01*
G01X30301587Y-1497149D01*
G01X30313017Y-1485719D01*
G01X30429349Y-1382849D02*
G01X30429349Y-1502991D01*
G01X30429349Y-1439999D02*
G01X30417919Y-1428569D01*
G01X30406489Y-1422981D01*
G01X30389471Y-1422981D01*
G01X30378041Y-1428569D01*
G01X30366611Y-1439999D01*
G01X30360769Y-1457271D01*
G01X30360769Y-1468701D01*
G01X30366611Y-1485719D01*
G01X30378041Y-1497149D01*
G01X30389471Y-1502991D01*
G01X30406489Y-1502991D01*
G01X30417919Y-1497149D01*
G01X30429349Y-1485719D01*
G01X31785854Y-1382849D02*
G01X31785854Y-1502991D01*
G01X31785854Y-1382849D02*
G01X31837416Y-1382849D01*
G01X31854434Y-1388691D01*
G01X31860276Y-1394279D01*
G01X31865864Y-1405709D01*
G01X31865864Y-1417139D01*
G01X31860276Y-1428569D01*
G01X31854434Y-1434411D01*
G01X31837416Y-1439999D01*
G01X31785854Y-1439999D01*
G01X31825986Y-1439999D02*
G01X31865864Y-1502991D01*
G01X31942318Y-1422981D02*
G01X31930888Y-1428569D01*
G01X31919458Y-1439999D01*
G01X31913616Y-1457271D01*
G01X31913616Y-1468701D01*
G01X31919458Y-1485719D01*
G01X31930888Y-1497149D01*
G01X31942318Y-1502991D01*
G01X31959336Y-1502991D01*
G01X31970766Y-1497149D01*
G01X31982196Y-1485719D01*
G01X31988038Y-1468701D01*
G01X31988038Y-1457271D01*
G01X31982196Y-1439999D01*
G01X31970766Y-1428569D01*
G01X31959336Y-1422981D01*
G01X31942318Y-1422981D01*
G01X32035790Y-1422981D02*
G01X32035790Y-1480131D01*
G01X32041632Y-1497149D01*
G01X32053062Y-1502991D01*
G01X32070080Y-1502991D01*
G01X32081510Y-1497149D01*
G01X32098782Y-1480131D01*
G01X32098782Y-1422981D02*
G01X32098782Y-1502991D01*
G01X32146534Y-1422981D02*
G01X32146534Y-1502991D01*
G01X32146534Y-1445841D02*
G01X32163806Y-1428569D01*
G01X32175236Y-1422981D01*
G01X32192254Y-1422981D01*
G01X32203684Y-1428569D01*
G01X32209526Y-1445841D01*
G01X32209526Y-1502991D01*
G01X32325858Y-1382849D02*
G01X32325858Y-1502991D01*
G01X32325858Y-1439999D02*
G01X32314428Y-1428569D01*
G01X32302998Y-1422981D01*
G01X32285980Y-1422981D01*
G01X32274550Y-1428569D01*
G01X32263120Y-1439999D01*
G01X32257278Y-1457271D01*
G01X32257278Y-1468701D01*
G01X32263120Y-1485719D01*
G01X32274550Y-1497149D01*
G01X32285980Y-1502991D01*
G01X32302998Y-1502991D01*
G01X32314428Y-1497149D01*
G01X32325858Y-1485719D01*
G01X33745355Y-1382849D02*
G01X33745355Y-1502991D01*
G01X33705223Y-1382849D02*
G01X33785233Y-1382849D01*
G01X33861687Y-1422981D02*
G01X33850257Y-1428569D01*
G01X33838827Y-1439999D01*
G01X33832985Y-1457271D01*
G01X33832985Y-1468701D01*
G01X33838827Y-1485719D01*
G01X33850257Y-1497149D01*
G01X33861687Y-1502991D01*
G01X33878705Y-1502991D01*
G01X33890135Y-1497149D01*
G01X33901565Y-1485719D01*
G01X33907407Y-1468701D01*
G01X33907407Y-1457271D01*
G01X33901565Y-1439999D01*
G01X33890135Y-1428569D01*
G01X33878705Y-1422981D01*
G01X33861687Y-1422981D01*
G01X33955159Y-1422981D02*
G01X33955159Y-1542869D01*
G01X33955159Y-1439999D02*
G01X33966589Y-1428569D01*
G01X33978019Y-1422981D01*
G01X33995291Y-1422981D01*
G01X34006721Y-1428569D01*
G01X34018151Y-1439999D01*
G01X34023739Y-1457271D01*
G01X34023739Y-1468701D01*
G01X34018151Y-1485719D01*
G01X34006721Y-1497149D01*
G01X33995291Y-1502991D01*
G01X33978019Y-1502991D01*
G01X33966589Y-1497149D01*
G01X33955159Y-1485719D01*
G01X34199507Y-1382849D02*
G01X34199507Y-1502991D01*
G01X34199507Y-1502991D02*
G01X34268087Y-1502991D01*
G01X34384419Y-1422981D02*
G01X34384419Y-1502991D01*
G01X34384419Y-1439999D02*
G01X34372989Y-1428569D01*
G01X34361559Y-1422981D01*
G01X34344541Y-1422981D01*
G01X34333111Y-1428569D01*
G01X34321681Y-1439999D01*
G01X34315839Y-1457271D01*
G01X34315839Y-1468701D01*
G01X34321681Y-1485719D01*
G01X34333111Y-1497149D01*
G01X34344541Y-1502991D01*
G01X34361559Y-1502991D01*
G01X34372989Y-1497149D01*
G01X34384419Y-1485719D01*
G01X34438013Y-1422981D02*
G01X34472303Y-1502991D01*
G01X34506593Y-1422981D02*
G01X34472303Y-1502991D01*
G01X34460873Y-1525851D01*
G01X34449443Y-1537281D01*
G01X34438013Y-1542869D01*
G01X34432171Y-1542869D01*
G01X34554345Y-1457271D02*
G01X34622925Y-1457271D01*
G01X34622925Y-1445841D01*
G01X34617337Y-1434411D01*
G01X34611495Y-1428569D01*
G01X34600065Y-1422981D01*
G01X34583047Y-1422981D01*
G01X34571617Y-1428569D01*
G01X34560187Y-1439999D01*
G01X34554345Y-1457271D01*
G01X34554345Y-1468701D01*
G01X34560187Y-1485719D01*
G01X34571617Y-1497149D01*
G01X34583047Y-1502991D01*
G01X34600065Y-1502991D01*
G01X34611495Y-1497149D01*
G01X34622925Y-1485719D01*
G01X34670677Y-1422981D02*
G01X34670677Y-1502991D01*
G01X34670677Y-1457271D02*
G01X34676519Y-1439999D01*
G01X34687949Y-1428569D01*
G01X34699379Y-1422981D01*
G01X34716397Y-1422981D01*
G01X34764149Y-1451429D02*
G01X34867019Y-1451429D01*
G01X34914771Y-1382849D02*
G01X34914771Y-1502991D01*
G01X34914771Y-1382849D02*
G01X34966333Y-1382849D01*
G01X34983351Y-1388691D01*
G01X34989193Y-1394279D01*
G01X34994781Y-1405709D01*
G01X34994781Y-1417139D01*
G01X34989193Y-1428569D01*
G01X34983351Y-1434411D01*
G01X34966333Y-1439999D01*
G01X34914771Y-1439999D02*
G01X34966333Y-1439999D01*
G01X34983351Y-1445841D01*
G01X34989193Y-1451429D01*
G01X34994781Y-1462859D01*
G01X34994781Y-1480131D01*
G01X34989193Y-1491561D01*
G01X34983351Y-1497149D01*
G01X34966333Y-1502991D01*
G01X34914771Y-1502991D01*
G01X35071235Y-1422981D02*
G01X35059805Y-1428569D01*
G01X35048375Y-1439999D01*
G01X35042533Y-1457271D01*
G01X35042533Y-1468701D01*
G01X35048375Y-1485719D01*
G01X35059805Y-1497149D01*
G01X35071235Y-1502991D01*
G01X35088253Y-1502991D01*
G01X35099683Y-1497149D01*
G01X35111113Y-1485719D01*
G01X35116955Y-1468701D01*
G01X35116955Y-1457271D01*
G01X35111113Y-1439999D01*
G01X35099683Y-1428569D01*
G01X35088253Y-1422981D01*
G01X35071235Y-1422981D01*
G01X35181979Y-1382849D02*
G01X35181979Y-1480131D01*
G01X35187567Y-1497149D01*
G01X35198997Y-1502991D01*
G01X35210427Y-1502991D01*
G01X35164707Y-1422981D02*
G01X35204839Y-1422981D01*
G01X35275451Y-1382849D02*
G01X35275451Y-1480131D01*
G01X35281039Y-1497149D01*
G01X35292469Y-1502991D01*
G01X35303899Y-1502991D01*
G01X35258179Y-1422981D02*
G01X35298311Y-1422981D01*
G01X35380353Y-1422981D02*
G01X35368923Y-1428569D01*
G01X35357493Y-1439999D01*
G01X35351651Y-1457271D01*
G01X35351651Y-1468701D01*
G01X35357493Y-1485719D01*
G01X35368923Y-1497149D01*
G01X35380353Y-1502991D01*
G01X35397371Y-1502991D01*
G01X35408801Y-1497149D01*
G01X35420231Y-1485719D01*
G01X35426073Y-1468701D01*
G01X35426073Y-1457271D01*
G01X35420231Y-1439999D01*
G01X35408801Y-1428569D01*
G01X35397371Y-1422981D01*
G01X35380353Y-1422981D01*
G01X35473825Y-1422981D02*
G01X35473825Y-1502991D01*
G01X35473825Y-1445841D02*
G01X35491097Y-1428569D01*
G01X35502527Y-1422981D01*
G01X35519545Y-1422981D01*
G01X35530975Y-1428569D01*
G01X35536817Y-1445841D01*
G01X35536817Y-1502991D01*
G01X35536817Y-1445841D02*
G01X35553835Y-1428569D01*
G01X35565265Y-1422981D01*
G01X35582537Y-1422981D01*
G01X35593967Y-1428569D01*
G01X35599555Y-1445841D01*
G01X35599555Y-1502991D01*
G01X35775323Y-1382849D02*
G01X35775323Y-1502991D01*
G01X35775323Y-1502991D02*
G01X35843903Y-1502991D01*
G01X35960235Y-1422981D02*
G01X35960235Y-1502991D01*
G01X35960235Y-1439999D02*
G01X35948805Y-1428569D01*
G01X35937375Y-1422981D01*
G01X35920357Y-1422981D01*
G01X35908927Y-1428569D01*
G01X35897497Y-1439999D01*
G01X35891655Y-1457271D01*
G01X35891655Y-1468701D01*
G01X35897497Y-1485719D01*
G01X35908927Y-1497149D01*
G01X35920357Y-1502991D01*
G01X35937375Y-1502991D01*
G01X35948805Y-1497149D01*
G01X35960235Y-1485719D01*
G01X36013829Y-1422981D02*
G01X36048119Y-1502991D01*
G01X36082409Y-1422981D02*
G01X36048119Y-1502991D01*
G01X36036689Y-1525851D01*
G01X36025259Y-1537281D01*
G01X36013829Y-1542869D01*
G01X36007987Y-1542869D01*
G01X36130161Y-1457271D02*
G01X36198741Y-1457271D01*
G01X36198741Y-1445841D01*
G01X36193153Y-1434411D01*
G01X36187311Y-1428569D01*
G01X36175881Y-1422981D01*
G01X36158863Y-1422981D01*
G01X36147433Y-1428569D01*
G01X36136003Y-1439999D01*
G01X36130161Y-1457271D01*
G01X36130161Y-1468701D01*
G01X36136003Y-1485719D01*
G01X36147433Y-1497149D01*
G01X36158863Y-1502991D01*
G01X36175881Y-1502991D01*
G01X36187311Y-1497149D01*
G01X36198741Y-1485719D01*
G01X36246493Y-1422981D02*
G01X36246493Y-1502991D01*
G01X36246493Y-1457271D02*
G01X36252335Y-1439999D01*
G01X36263765Y-1428569D01*
G01X36275195Y-1422981D01*
G01X36292213Y-1422981D01*
G01X21751874Y-1986280D02*
G01X21763304Y-1980692D01*
G01X21780576Y-1963420D01*
G01X21780576Y-2083562D01*
G01X23166037Y-1986280D02*
G01X23177467Y-1980692D01*
G01X23194739Y-1963420D01*
G01X23194739Y-2083562D01*
G01X23242491Y-1986280D02*
G01X23253921Y-1980692D01*
G01X23271193Y-1963420D01*
G01X23271193Y-2083562D01*
G01X23347647Y-1963420D02*
G01X23330375Y-1969262D01*
G01X23324787Y-1980692D01*
G01X23324787Y-1992122D01*
G01X23330375Y-2003552D01*
G01X23341805Y-2009140D01*
G01X23364665Y-2014982D01*
G01X23381937Y-2020570D01*
G01X23393367Y-2032000D01*
G01X23398955Y-2043430D01*
G01X23398955Y-2060702D01*
G01X23393367Y-2072132D01*
G01X23387525Y-2077720D01*
G01X23370507Y-2083562D01*
G01X23347647Y-2083562D01*
G01X23330375Y-2077720D01*
G01X23324787Y-2072132D01*
G01X23318945Y-2060702D01*
G01X23318945Y-2043430D01*
G01X23324787Y-2032000D01*
G01X23336217Y-2020570D01*
G01X23353235Y-2014982D01*
G01X23376095Y-2009140D01*
G01X23387525Y-2003552D01*
G01X23393367Y-1992122D01*
G01X23393367Y-1980692D01*
G01X23387525Y-1969262D01*
G01X23370507Y-1963420D01*
G01X23347647Y-1963420D01*
G01X23452549Y-2054860D02*
G01X23446707Y-2060702D01*
G01X23452549Y-2066290D01*
G01X23458137Y-2060702D01*
G01X23452549Y-2054860D01*
G01X23505889Y-1986280D02*
G01X23517319Y-1980692D01*
G01X23534591Y-1963420D01*
G01X23534591Y-2083562D01*
G01X23582343Y-2003552D02*
G01X23645335Y-2083562D01*
G01X23645335Y-2003552D02*
G01X23582343Y-2083562D01*
G01X23693087Y-1986280D02*
G01X23704517Y-1980692D01*
G01X23721789Y-1963420D01*
G01X23721789Y-2083562D01*
G01X23769541Y-1986280D02*
G01X23780971Y-1980692D01*
G01X23798243Y-1963420D01*
G01X23798243Y-2083562D01*
G01X23874697Y-1963420D02*
G01X23857425Y-1969262D01*
G01X23851837Y-1980692D01*
G01X23851837Y-1992122D01*
G01X23857425Y-2003552D01*
G01X23868855Y-2009140D01*
G01X23891715Y-2014982D01*
G01X23908987Y-2020570D01*
G01X23920417Y-2032000D01*
G01X23926005Y-2043430D01*
G01X23926005Y-2060702D01*
G01X23920417Y-2072132D01*
G01X23914575Y-2077720D01*
G01X23897557Y-2083562D01*
G01X23874697Y-2083562D01*
G01X23857425Y-2077720D01*
G01X23851837Y-2072132D01*
G01X23845995Y-2060702D01*
G01X23845995Y-2043430D01*
G01X23851837Y-2032000D01*
G01X23863267Y-2020570D01*
G01X23880285Y-2014982D01*
G01X23903145Y-2009140D01*
G01X23914575Y-2003552D01*
G01X23920417Y-1992122D01*
G01X23920417Y-1980692D01*
G01X23914575Y-1969262D01*
G01X23897557Y-1963420D01*
G01X23874697Y-1963420D01*
G01X23979599Y-2054860D02*
G01X23973757Y-2060702D01*
G01X23979599Y-2066290D01*
G01X23985187Y-2060702D01*
G01X23979599Y-2054860D01*
G01X24032939Y-1986280D02*
G01X24044369Y-1980692D01*
G01X24061641Y-1963420D01*
G01X24061641Y-2083562D01*
G01X24109393Y-2003552D02*
G01X24109393Y-2083562D01*
G01X24109393Y-2026412D02*
G01X24126665Y-2009140D01*
G01X24138095Y-2003552D01*
G01X24155113Y-2003552D01*
G01X24166543Y-2009140D01*
G01X24172385Y-2026412D01*
G01X24172385Y-2083562D01*
G01X24172385Y-2026412D02*
G01X24189403Y-2009140D01*
G01X24200833Y-2003552D01*
G01X24218105Y-2003552D01*
G01X24229535Y-2009140D01*
G01X24235123Y-2026412D01*
G01X24235123Y-2083562D01*
G01X24282875Y-1963420D02*
G01X24288717Y-1969262D01*
G01X24294305Y-1963420D01*
G01X24288717Y-1957832D01*
G01X24282875Y-1963420D01*
G01X24288717Y-2003552D02*
G01X24288717Y-2083562D01*
G01X24342057Y-1963420D02*
G01X24342057Y-2083562D01*
G01X24429941Y-1940560D02*
G01X24418511Y-1951990D01*
G01X24407081Y-1969262D01*
G01X24395651Y-1992122D01*
G01X24389809Y-2020570D01*
G01X24389809Y-2043430D01*
G01X24395651Y-2072132D01*
G01X24407081Y-2094992D01*
G01X24418511Y-2112010D01*
G01X24429941Y-2123440D01*
G01X24489123Y-1963420D02*
G01X24552115Y-1963420D01*
G01X24517825Y-2009140D01*
G01X24534843Y-2009140D01*
G01X24546273Y-2014982D01*
G01X24552115Y-2020570D01*
G01X24557703Y-2037842D01*
G01X24557703Y-2049272D01*
G01X24552115Y-2066290D01*
G01X24540685Y-2077720D01*
G01X24523413Y-2083562D01*
G01X24506395Y-2083562D01*
G01X24489123Y-2077720D01*
G01X24483535Y-2072132D01*
G01X24477693Y-2060702D01*
G01X24611297Y-2054860D02*
G01X24605455Y-2060702D01*
G01X24611297Y-2066290D01*
G01X24616885Y-2060702D01*
G01X24611297Y-2054860D01*
G01X24698927Y-1963420D02*
G01X24681909Y-1969262D01*
G01X24670479Y-1986280D01*
G01X24664637Y-2014982D01*
G01X24664637Y-2032000D01*
G01X24670479Y-2060702D01*
G01X24681909Y-2077720D01*
G01X24698927Y-2083562D01*
G01X24710357Y-2083562D01*
G01X24727629Y-2077720D01*
G01X24739059Y-2060702D01*
G01X24744647Y-2032000D01*
G01X24744647Y-2014982D01*
G01X24739059Y-1986280D01*
G01X24727629Y-1969262D01*
G01X24710357Y-1963420D01*
G01X24698927Y-1963420D01*
G01X24826689Y-1963420D02*
G01X24809671Y-1969262D01*
G01X24798241Y-1986280D01*
G01X24792399Y-2014982D01*
G01X24792399Y-2032000D01*
G01X24798241Y-2060702D01*
G01X24809671Y-2077720D01*
G01X24826689Y-2083562D01*
G01X24838119Y-2083562D01*
G01X24855391Y-2077720D01*
G01X24866821Y-2060702D01*
G01X24872409Y-2032000D01*
G01X24872409Y-2014982D01*
G01X24866821Y-1986280D01*
G01X24855391Y-1969262D01*
G01X24838119Y-1963420D01*
G01X24826689Y-1963420D01*
G01X24954451Y-1963420D02*
G01X24937433Y-1969262D01*
G01X24926003Y-1986280D01*
G01X24920161Y-2014982D01*
G01X24920161Y-2032000D01*
G01X24926003Y-2060702D01*
G01X24937433Y-2077720D01*
G01X24954451Y-2083562D01*
G01X24965881Y-2083562D01*
G01X24983153Y-2077720D01*
G01X24994583Y-2060702D01*
G01X25000171Y-2032000D01*
G01X25000171Y-2014982D01*
G01X24994583Y-1986280D01*
G01X24983153Y-1969262D01*
G01X24965881Y-1963420D01*
G01X24954451Y-1963420D01*
G01X25047923Y-2003552D02*
G01X25110915Y-2083562D01*
G01X25110915Y-2003552D02*
G01X25047923Y-2083562D01*
G01X25170097Y-1963420D02*
G01X25233089Y-1963420D01*
G01X25198799Y-2009140D01*
G01X25215817Y-2009140D01*
G01X25227247Y-2014982D01*
G01X25233089Y-2020570D01*
G01X25238677Y-2037842D01*
G01X25238677Y-2049272D01*
G01X25233089Y-2066290D01*
G01X25221659Y-2077720D01*
G01X25204387Y-2083562D01*
G01X25187369Y-2083562D01*
G01X25170097Y-2077720D01*
G01X25164509Y-2072132D01*
G01X25158667Y-2060702D01*
G01X25292271Y-2054860D02*
G01X25286429Y-2060702D01*
G01X25292271Y-2066290D01*
G01X25297859Y-2060702D01*
G01X25292271Y-2054860D01*
G01X25379901Y-1963420D02*
G01X25362883Y-1969262D01*
G01X25351453Y-1986280D01*
G01X25345611Y-2014982D01*
G01X25345611Y-2032000D01*
G01X25351453Y-2060702D01*
G01X25362883Y-2077720D01*
G01X25379901Y-2083562D01*
G01X25391331Y-2083562D01*
G01X25408603Y-2077720D01*
G01X25420033Y-2060702D01*
G01X25425621Y-2032000D01*
G01X25425621Y-2014982D01*
G01X25420033Y-1986280D01*
G01X25408603Y-1969262D01*
G01X25391331Y-1963420D01*
G01X25379901Y-1963420D01*
G01X25507663Y-1963420D02*
G01X25490645Y-1969262D01*
G01X25479215Y-1986280D01*
G01X25473373Y-2014982D01*
G01X25473373Y-2032000D01*
G01X25479215Y-2060702D01*
G01X25490645Y-2077720D01*
G01X25507663Y-2083562D01*
G01X25519093Y-2083562D01*
G01X25536365Y-2077720D01*
G01X25547795Y-2060702D01*
G01X25553383Y-2032000D01*
G01X25553383Y-2014982D01*
G01X25547795Y-1986280D01*
G01X25536365Y-1969262D01*
G01X25519093Y-1963420D01*
G01X25507663Y-1963420D01*
G01X25635425Y-1963420D02*
G01X25618407Y-1969262D01*
G01X25606977Y-1986280D01*
G01X25601135Y-2014982D01*
G01X25601135Y-2032000D01*
G01X25606977Y-2060702D01*
G01X25618407Y-2077720D01*
G01X25635425Y-2083562D01*
G01X25646855Y-2083562D01*
G01X25664127Y-2077720D01*
G01X25675557Y-2060702D01*
G01X25681145Y-2032000D01*
G01X25681145Y-2014982D01*
G01X25675557Y-1986280D01*
G01X25664127Y-1969262D01*
G01X25646855Y-1963420D01*
G01X25635425Y-1963420D01*
G01X25728897Y-2003552D02*
G01X25728897Y-2083562D01*
G01X25728897Y-2026412D02*
G01X25746169Y-2009140D01*
G01X25757599Y-2003552D01*
G01X25774617Y-2003552D01*
G01X25786047Y-2009140D01*
G01X25791889Y-2026412D01*
G01X25791889Y-2083562D01*
G01X25791889Y-2026412D02*
G01X25808907Y-2009140D01*
G01X25820337Y-2003552D01*
G01X25837609Y-2003552D01*
G01X25849039Y-2009140D01*
G01X25854627Y-2026412D01*
G01X25854627Y-2083562D01*
G01X25902379Y-2003552D02*
G01X25902379Y-2083562D01*
G01X25902379Y-2026412D02*
G01X25919651Y-2009140D01*
G01X25931081Y-2003552D01*
G01X25948099Y-2003552D01*
G01X25959529Y-2009140D01*
G01X25965371Y-2026412D01*
G01X25965371Y-2083562D01*
G01X25965371Y-2026412D02*
G01X25982389Y-2009140D01*
G01X25993819Y-2003552D01*
G01X26011091Y-2003552D01*
G01X26022521Y-2009140D01*
G01X26028109Y-2026412D01*
G01X26028109Y-2083562D01*
G01X26075861Y-1940560D02*
G01X26087291Y-1951990D01*
G01X26098721Y-1969262D01*
G01X26110151Y-1992122D01*
G01X26115993Y-2020570D01*
G01X26115993Y-2043430D01*
G01X26110151Y-2072132D01*
G01X26098721Y-2094992D01*
G01X26087291Y-2112010D01*
G01X26075861Y-2123440D01*
G01X27224087Y-1963420D02*
G01X27224087Y-2083562D01*
G01X27224087Y-1963420D02*
G01X27275649Y-1963420D01*
G01X27292667Y-1969262D01*
G01X27298509Y-1974850D01*
G01X27304097Y-1986280D01*
G01X27304097Y-2003552D01*
G01X27298509Y-2014982D01*
G01X27292667Y-2020570D01*
G01X27275649Y-2026412D01*
G01X27224087Y-2026412D01*
G01X27391981Y-1963420D02*
G01X27391981Y-2083562D01*
G01X27351849Y-1963420D02*
G01X27431859Y-1963420D01*
G01X27479611Y-1963420D02*
G01X27479611Y-2083562D01*
G01X27559621Y-1963420D02*
G01X27559621Y-2083562D01*
G01X27479611Y-2020570D02*
G01X27559621Y-2020570D01*
G01X28685494Y-1963420D02*
G01X28685494Y-2083562D01*
G01X28685494Y-1963420D02*
G01X28737056Y-1963420D01*
G01X28754074Y-1969262D01*
G01X28759916Y-1974850D01*
G01X28765504Y-1986280D01*
G01X28765504Y-1997710D01*
G01X28759916Y-2009140D01*
G01X28754074Y-2014982D01*
G01X28737056Y-2020570D01*
G01X28685494Y-2020570D01*
G01X28725626Y-2020570D02*
G01X28765504Y-2083562D01*
G01X28841958Y-2003552D02*
G01X28830528Y-2009140D01*
G01X28819098Y-2020570D01*
G01X28813256Y-2037842D01*
G01X28813256Y-2049272D01*
G01X28819098Y-2066290D01*
G01X28830528Y-2077720D01*
G01X28841958Y-2083562D01*
G01X28858976Y-2083562D01*
G01X28870406Y-2077720D01*
G01X28881836Y-2066290D01*
G01X28887678Y-2049272D01*
G01X28887678Y-2037842D01*
G01X28881836Y-2020570D01*
G01X28870406Y-2009140D01*
G01X28858976Y-2003552D01*
G01X28841958Y-2003552D01*
G01X28935430Y-2003552D02*
G01X28935430Y-2060702D01*
G01X28941272Y-2077720D01*
G01X28952702Y-2083562D01*
G01X28969720Y-2083562D01*
G01X28981150Y-2077720D01*
G01X28998422Y-2060702D01*
G01X28998422Y-2003552D02*
G01X28998422Y-2083562D01*
G01X29046174Y-2003552D02*
G01X29046174Y-2083562D01*
G01X29046174Y-2026412D02*
G01X29063446Y-2009140D01*
G01X29074876Y-2003552D01*
G01X29091894Y-2003552D01*
G01X29103324Y-2009140D01*
G01X29109166Y-2026412D01*
G01X29109166Y-2083562D01*
G01X29225498Y-1963420D02*
G01X29225498Y-2083562D01*
G01X29225498Y-2020570D02*
G01X29214068Y-2009140D01*
G01X29202638Y-2003552D01*
G01X29185620Y-2003552D01*
G01X29174190Y-2009140D01*
G01X29162760Y-2020570D01*
G01X29156918Y-2037842D01*
G01X29156918Y-2049272D01*
G01X29162760Y-2066290D01*
G01X29174190Y-2077720D01*
G01X29185620Y-2083562D01*
G01X29202638Y-2083562D01*
G01X29214068Y-2077720D01*
G01X29225498Y-2066290D01*
G01X30116675Y-1963420D02*
G01X30116675Y-2083562D01*
G01X30116675Y-1963420D02*
G01X30168237Y-1963420D01*
G01X30185255Y-1969262D01*
G01X30191097Y-1974850D01*
G01X30196685Y-1986280D01*
G01X30196685Y-2003552D01*
G01X30191097Y-2014982D01*
G01X30185255Y-2020570D01*
G01X30168237Y-2026412D01*
G01X30116675Y-2026412D01*
G01X30313017Y-2003552D02*
G01X30313017Y-2083562D01*
G01X30313017Y-2020570D02*
G01X30301587Y-2009140D01*
G01X30290157Y-2003552D01*
G01X30273139Y-2003552D01*
G01X30261709Y-2009140D01*
G01X30250279Y-2020570D01*
G01X30244437Y-2037842D01*
G01X30244437Y-2049272D01*
G01X30250279Y-2066290D01*
G01X30261709Y-2077720D01*
G01X30273139Y-2083562D01*
G01X30290157Y-2083562D01*
G01X30301587Y-2077720D01*
G01X30313017Y-2066290D01*
G01X30429349Y-1963420D02*
G01X30429349Y-2083562D01*
G01X30429349Y-2020570D02*
G01X30417919Y-2009140D01*
G01X30406489Y-2003552D01*
G01X30389471Y-2003552D01*
G01X30378041Y-2009140D01*
G01X30366611Y-2020570D01*
G01X30360769Y-2037842D01*
G01X30360769Y-2049272D01*
G01X30366611Y-2066290D01*
G01X30378041Y-2077720D01*
G01X30389471Y-2083562D01*
G01X30406489Y-2083562D01*
G01X30417919Y-2077720D01*
G01X30429349Y-2066290D01*
G01X31785854Y-1963420D02*
G01X31785854Y-2083562D01*
G01X31785854Y-1963420D02*
G01X31837416Y-1963420D01*
G01X31854434Y-1969262D01*
G01X31860276Y-1974850D01*
G01X31865864Y-1986280D01*
G01X31865864Y-1997710D01*
G01X31860276Y-2009140D01*
G01X31854434Y-2014982D01*
G01X31837416Y-2020570D01*
G01X31785854Y-2020570D01*
G01X31825986Y-2020570D02*
G01X31865864Y-2083562D01*
G01X31942318Y-2003552D02*
G01X31930888Y-2009140D01*
G01X31919458Y-2020570D01*
G01X31913616Y-2037842D01*
G01X31913616Y-2049272D01*
G01X31919458Y-2066290D01*
G01X31930888Y-2077720D01*
G01X31942318Y-2083562D01*
G01X31959336Y-2083562D01*
G01X31970766Y-2077720D01*
G01X31982196Y-2066290D01*
G01X31988038Y-2049272D01*
G01X31988038Y-2037842D01*
G01X31982196Y-2020570D01*
G01X31970766Y-2009140D01*
G01X31959336Y-2003552D01*
G01X31942318Y-2003552D01*
G01X32035790Y-2003552D02*
G01X32035790Y-2060702D01*
G01X32041632Y-2077720D01*
G01X32053062Y-2083562D01*
G01X32070080Y-2083562D01*
G01X32081510Y-2077720D01*
G01X32098782Y-2060702D01*
G01X32098782Y-2003552D02*
G01X32098782Y-2083562D01*
G01X32146534Y-2003552D02*
G01X32146534Y-2083562D01*
G01X32146534Y-2026412D02*
G01X32163806Y-2009140D01*
G01X32175236Y-2003552D01*
G01X32192254Y-2003552D01*
G01X32203684Y-2009140D01*
G01X32209526Y-2026412D01*
G01X32209526Y-2083562D01*
G01X32325858Y-1963420D02*
G01X32325858Y-2083562D01*
G01X32325858Y-2020570D02*
G01X32314428Y-2009140D01*
G01X32302998Y-2003552D01*
G01X32285980Y-2003552D01*
G01X32274550Y-2009140D01*
G01X32263120Y-2020570D01*
G01X32257278Y-2037842D01*
G01X32257278Y-2049272D01*
G01X32263120Y-2066290D01*
G01X32274550Y-2077720D01*
G01X32285980Y-2083562D01*
G01X32302998Y-2083562D01*
G01X32314428Y-2077720D01*
G01X32325858Y-2066290D01*
G01X33745355Y-1963420D02*
G01X33745355Y-2083562D01*
G01X33705223Y-1963420D02*
G01X33785233Y-1963420D01*
G01X33861687Y-2003552D02*
G01X33850257Y-2009140D01*
G01X33838827Y-2020570D01*
G01X33832985Y-2037842D01*
G01X33832985Y-2049272D01*
G01X33838827Y-2066290D01*
G01X33850257Y-2077720D01*
G01X33861687Y-2083562D01*
G01X33878705Y-2083562D01*
G01X33890135Y-2077720D01*
G01X33901565Y-2066290D01*
G01X33907407Y-2049272D01*
G01X33907407Y-2037842D01*
G01X33901565Y-2020570D01*
G01X33890135Y-2009140D01*
G01X33878705Y-2003552D01*
G01X33861687Y-2003552D01*
G01X33955159Y-2003552D02*
G01X33955159Y-2123440D01*
G01X33955159Y-2020570D02*
G01X33966589Y-2009140D01*
G01X33978019Y-2003552D01*
G01X33995291Y-2003552D01*
G01X34006721Y-2009140D01*
G01X34018151Y-2020570D01*
G01X34023739Y-2037842D01*
G01X34023739Y-2049272D01*
G01X34018151Y-2066290D01*
G01X34006721Y-2077720D01*
G01X33995291Y-2083562D01*
G01X33978019Y-2083562D01*
G01X33966589Y-2077720D01*
G01X33955159Y-2066290D01*
G01X34199507Y-1963420D02*
G01X34199507Y-2083562D01*
G01X34199507Y-2083562D02*
G01X34268087Y-2083562D01*
G01X34384419Y-2003552D02*
G01X34384419Y-2083562D01*
G01X34384419Y-2020570D02*
G01X34372989Y-2009140D01*
G01X34361559Y-2003552D01*
G01X34344541Y-2003552D01*
G01X34333111Y-2009140D01*
G01X34321681Y-2020570D01*
G01X34315839Y-2037842D01*
G01X34315839Y-2049272D01*
G01X34321681Y-2066290D01*
G01X34333111Y-2077720D01*
G01X34344541Y-2083562D01*
G01X34361559Y-2083562D01*
G01X34372989Y-2077720D01*
G01X34384419Y-2066290D01*
G01X34438013Y-2003552D02*
G01X34472303Y-2083562D01*
G01X34506593Y-2003552D02*
G01X34472303Y-2083562D01*
G01X34460873Y-2106422D01*
G01X34449443Y-2117852D01*
G01X34438013Y-2123440D01*
G01X34432171Y-2123440D01*
G01X34554345Y-2037842D02*
G01X34622925Y-2037842D01*
G01X34622925Y-2026412D01*
G01X34617337Y-2014982D01*
G01X34611495Y-2009140D01*
G01X34600065Y-2003552D01*
G01X34583047Y-2003552D01*
G01X34571617Y-2009140D01*
G01X34560187Y-2020570D01*
G01X34554345Y-2037842D01*
G01X34554345Y-2049272D01*
G01X34560187Y-2066290D01*
G01X34571617Y-2077720D01*
G01X34583047Y-2083562D01*
G01X34600065Y-2083562D01*
G01X34611495Y-2077720D01*
G01X34622925Y-2066290D01*
G01X34670677Y-2003552D02*
G01X34670677Y-2083562D01*
G01X34670677Y-2037842D02*
G01X34676519Y-2020570D01*
G01X34687949Y-2009140D01*
G01X34699379Y-2003552D01*
G01X34716397Y-2003552D01*
G01X34764149Y-2032000D02*
G01X34867019Y-2032000D01*
G01X34914771Y-1963420D02*
G01X34914771Y-2083562D01*
G01X34914771Y-1963420D02*
G01X34966333Y-1963420D01*
G01X34983351Y-1969262D01*
G01X34989193Y-1974850D01*
G01X34994781Y-1986280D01*
G01X34994781Y-1997710D01*
G01X34989193Y-2009140D01*
G01X34983351Y-2014982D01*
G01X34966333Y-2020570D01*
G01X34914771Y-2020570D02*
G01X34966333Y-2020570D01*
G01X34983351Y-2026412D01*
G01X34989193Y-2032000D01*
G01X34994781Y-2043430D01*
G01X34994781Y-2060702D01*
G01X34989193Y-2072132D01*
G01X34983351Y-2077720D01*
G01X34966333Y-2083562D01*
G01X34914771Y-2083562D01*
G01X35071235Y-2003552D02*
G01X35059805Y-2009140D01*
G01X35048375Y-2020570D01*
G01X35042533Y-2037842D01*
G01X35042533Y-2049272D01*
G01X35048375Y-2066290D01*
G01X35059805Y-2077720D01*
G01X35071235Y-2083562D01*
G01X35088253Y-2083562D01*
G01X35099683Y-2077720D01*
G01X35111113Y-2066290D01*
G01X35116955Y-2049272D01*
G01X35116955Y-2037842D01*
G01X35111113Y-2020570D01*
G01X35099683Y-2009140D01*
G01X35088253Y-2003552D01*
G01X35071235Y-2003552D01*
G01X35181979Y-1963420D02*
G01X35181979Y-2060702D01*
G01X35187567Y-2077720D01*
G01X35198997Y-2083562D01*
G01X35210427Y-2083562D01*
G01X35164707Y-2003552D02*
G01X35204839Y-2003552D01*
G01X35275451Y-1963420D02*
G01X35275451Y-2060702D01*
G01X35281039Y-2077720D01*
G01X35292469Y-2083562D01*
G01X35303899Y-2083562D01*
G01X35258179Y-2003552D02*
G01X35298311Y-2003552D01*
G01X35380353Y-2003552D02*
G01X35368923Y-2009140D01*
G01X35357493Y-2020570D01*
G01X35351651Y-2037842D01*
G01X35351651Y-2049272D01*
G01X35357493Y-2066290D01*
G01X35368923Y-2077720D01*
G01X35380353Y-2083562D01*
G01X35397371Y-2083562D01*
G01X35408801Y-2077720D01*
G01X35420231Y-2066290D01*
G01X35426073Y-2049272D01*
G01X35426073Y-2037842D01*
G01X35420231Y-2020570D01*
G01X35408801Y-2009140D01*
G01X35397371Y-2003552D01*
G01X35380353Y-2003552D01*
G01X35473825Y-2003552D02*
G01X35473825Y-2083562D01*
G01X35473825Y-2026412D02*
G01X35491097Y-2009140D01*
G01X35502527Y-2003552D01*
G01X35519545Y-2003552D01*
G01X35530975Y-2009140D01*
G01X35536817Y-2026412D01*
G01X35536817Y-2083562D01*
G01X35536817Y-2026412D02*
G01X35553835Y-2009140D01*
G01X35565265Y-2003552D01*
G01X35582537Y-2003552D01*
G01X35593967Y-2009140D01*
G01X35599555Y-2026412D01*
G01X35599555Y-2083562D01*
G01X35775323Y-1963420D02*
G01X35775323Y-2083562D01*
G01X35775323Y-2083562D02*
G01X35843903Y-2083562D01*
G01X35960235Y-2003552D02*
G01X35960235Y-2083562D01*
G01X35960235Y-2020570D02*
G01X35948805Y-2009140D01*
G01X35937375Y-2003552D01*
G01X35920357Y-2003552D01*
G01X35908927Y-2009140D01*
G01X35897497Y-2020570D01*
G01X35891655Y-2037842D01*
G01X35891655Y-2049272D01*
G01X35897497Y-2066290D01*
G01X35908927Y-2077720D01*
G01X35920357Y-2083562D01*
G01X35937375Y-2083562D01*
G01X35948805Y-2077720D01*
G01X35960235Y-2066290D01*
G01X36013829Y-2003552D02*
G01X36048119Y-2083562D01*
G01X36082409Y-2003552D02*
G01X36048119Y-2083562D01*
G01X36036689Y-2106422D01*
G01X36025259Y-2117852D01*
G01X36013829Y-2123440D01*
G01X36007987Y-2123440D01*
G01X36130161Y-2037842D02*
G01X36198741Y-2037842D01*
G01X36198741Y-2026412D01*
G01X36193153Y-2014982D01*
G01X36187311Y-2009140D01*
G01X36175881Y-2003552D01*
G01X36158863Y-2003552D01*
G01X36147433Y-2009140D01*
G01X36136003Y-2020570D01*
G01X36130161Y-2037842D01*
G01X36130161Y-2049272D01*
G01X36136003Y-2066290D01*
G01X36147433Y-2077720D01*
G01X36158863Y-2083562D01*
G01X36175881Y-2083562D01*
G01X36187311Y-2077720D01*
G01X36198741Y-2066290D01*
G01X36246493Y-2003552D02*
G01X36246493Y-2083562D01*
G01X36246493Y-2037842D02*
G01X36252335Y-2020570D01*
G01X36263765Y-2009140D01*
G01X36275195Y-2003552D01*
G01X36292213Y-2003552D01*
G01X21751874Y-2566851D02*
G01X21763304Y-2561263D01*
G01X21780576Y-2543991D01*
G01X21780576Y-2664133D01*
G01X23246047Y-2543991D02*
G01X23188897Y-2664133D01*
G01X23166037Y-2543991D02*
G01X23246047Y-2543991D01*
G01X23322501Y-2543991D02*
G01X23305229Y-2549833D01*
G01X23299641Y-2561263D01*
G01X23299641Y-2572693D01*
G01X23305229Y-2584123D01*
G01X23316659Y-2589711D01*
G01X23339519Y-2595553D01*
G01X23356791Y-2601141D01*
G01X23368221Y-2612571D01*
G01X23373809Y-2624001D01*
G01X23373809Y-2641273D01*
G01X23368221Y-2652703D01*
G01X23362379Y-2658291D01*
G01X23345361Y-2664133D01*
G01X23322501Y-2664133D01*
G01X23305229Y-2658291D01*
G01X23299641Y-2652703D01*
G01X23293799Y-2641273D01*
G01X23293799Y-2624001D01*
G01X23299641Y-2612571D01*
G01X23311071Y-2601141D01*
G01X23328089Y-2595553D01*
G01X23350949Y-2589711D01*
G01X23362379Y-2584123D01*
G01X23368221Y-2572693D01*
G01X23368221Y-2561263D01*
G01X23362379Y-2549833D01*
G01X23345361Y-2543991D01*
G01X23322501Y-2543991D01*
G01X23427403Y-2635431D02*
G01X23421561Y-2641273D01*
G01X23427403Y-2646861D01*
G01X23432991Y-2641273D01*
G01X23427403Y-2635431D01*
G01X23560753Y-2543991D02*
G01X23503603Y-2664133D01*
G01X23480743Y-2543991D02*
G01X23560753Y-2543991D01*
G01X23608505Y-2584123D02*
G01X23671497Y-2664133D01*
G01X23671497Y-2584123D02*
G01X23608505Y-2664133D01*
G01X23799259Y-2543991D02*
G01X23742109Y-2664133D01*
G01X23719249Y-2543991D02*
G01X23799259Y-2543991D01*
G01X23875713Y-2543991D02*
G01X23858441Y-2549833D01*
G01X23852853Y-2561263D01*
G01X23852853Y-2572693D01*
G01X23858441Y-2584123D01*
G01X23869871Y-2589711D01*
G01X23892731Y-2595553D01*
G01X23910003Y-2601141D01*
G01X23921433Y-2612571D01*
G01X23927021Y-2624001D01*
G01X23927021Y-2641273D01*
G01X23921433Y-2652703D01*
G01X23915591Y-2658291D01*
G01X23898573Y-2664133D01*
G01X23875713Y-2664133D01*
G01X23858441Y-2658291D01*
G01X23852853Y-2652703D01*
G01X23847011Y-2641273D01*
G01X23847011Y-2624001D01*
G01X23852853Y-2612571D01*
G01X23864283Y-2601141D01*
G01X23881301Y-2595553D01*
G01X23904161Y-2589711D01*
G01X23915591Y-2584123D01*
G01X23921433Y-2572693D01*
G01X23921433Y-2561263D01*
G01X23915591Y-2549833D01*
G01X23898573Y-2543991D01*
G01X23875713Y-2543991D01*
G01X23980615Y-2635431D02*
G01X23974773Y-2641273D01*
G01X23980615Y-2646861D01*
G01X23986203Y-2641273D01*
G01X23980615Y-2635431D01*
G01X24113965Y-2543991D02*
G01X24056815Y-2664133D01*
G01X24033955Y-2543991D02*
G01X24113965Y-2543991D01*
G01X24161717Y-2584123D02*
G01X24161717Y-2664133D01*
G01X24161717Y-2606983D02*
G01X24178989Y-2589711D01*
G01X24190419Y-2584123D01*
G01X24207437Y-2584123D01*
G01X24218867Y-2589711D01*
G01X24224709Y-2606983D01*
G01X24224709Y-2664133D01*
G01X24224709Y-2606983D02*
G01X24241727Y-2589711D01*
G01X24253157Y-2584123D01*
G01X24270429Y-2584123D01*
G01X24281859Y-2589711D01*
G01X24287447Y-2606983D01*
G01X24287447Y-2664133D01*
G01X24335199Y-2543991D02*
G01X24341041Y-2549833D01*
G01X24346629Y-2543991D01*
G01X24341041Y-2538403D01*
G01X24335199Y-2543991D01*
G01X24341041Y-2584123D02*
G01X24341041Y-2664133D01*
G01X24394381Y-2543991D02*
G01X24394381Y-2664133D01*
G01X24482265Y-2521131D02*
G01X24470835Y-2532561D01*
G01X24459405Y-2549833D01*
G01X24447975Y-2572693D01*
G01X24442133Y-2601141D01*
G01X24442133Y-2624001D01*
G01X24447975Y-2652703D01*
G01X24459405Y-2675563D01*
G01X24470835Y-2692581D01*
G01X24482265Y-2704011D01*
G01X24535859Y-2572693D02*
G01X24535859Y-2566851D01*
G01X24541447Y-2555421D01*
G01X24547289Y-2549833D01*
G01X24558719Y-2543991D01*
G01X24581579Y-2543991D01*
G01X24593009Y-2549833D01*
G01X24598597Y-2555421D01*
G01X24604439Y-2566851D01*
G01X24604439Y-2578281D01*
G01X24598597Y-2589711D01*
G01X24587167Y-2606983D01*
G01X24530017Y-2664133D01*
G01X24610027Y-2664133D01*
G01X24663621Y-2635431D02*
G01X24657779Y-2641273D01*
G01X24663621Y-2646861D01*
G01X24669209Y-2641273D01*
G01X24663621Y-2635431D01*
G01X24751251Y-2543991D02*
G01X24734233Y-2549833D01*
G01X24722803Y-2566851D01*
G01X24716961Y-2595553D01*
G01X24716961Y-2612571D01*
G01X24722803Y-2641273D01*
G01X24734233Y-2658291D01*
G01X24751251Y-2664133D01*
G01X24762681Y-2664133D01*
G01X24779953Y-2658291D01*
G01X24791383Y-2641273D01*
G01X24796971Y-2612571D01*
G01X24796971Y-2595553D01*
G01X24791383Y-2566851D01*
G01X24779953Y-2549833D01*
G01X24762681Y-2543991D01*
G01X24751251Y-2543991D01*
G01X24879013Y-2543991D02*
G01X24861995Y-2549833D01*
G01X24850565Y-2566851D01*
G01X24844723Y-2595553D01*
G01X24844723Y-2612571D01*
G01X24850565Y-2641273D01*
G01X24861995Y-2658291D01*
G01X24879013Y-2664133D01*
G01X24890443Y-2664133D01*
G01X24907715Y-2658291D01*
G01X24919145Y-2641273D01*
G01X24924733Y-2612571D01*
G01X24924733Y-2595553D01*
G01X24919145Y-2566851D01*
G01X24907715Y-2549833D01*
G01X24890443Y-2543991D01*
G01X24879013Y-2543991D01*
G01X25006775Y-2543991D02*
G01X24989757Y-2549833D01*
G01X24978327Y-2566851D01*
G01X24972485Y-2595553D01*
G01X24972485Y-2612571D01*
G01X24978327Y-2641273D01*
G01X24989757Y-2658291D01*
G01X25006775Y-2664133D01*
G01X25018205Y-2664133D01*
G01X25035477Y-2658291D01*
G01X25046907Y-2641273D01*
G01X25052495Y-2612571D01*
G01X25052495Y-2595553D01*
G01X25046907Y-2566851D01*
G01X25035477Y-2549833D01*
G01X25018205Y-2543991D01*
G01X25006775Y-2543991D01*
G01X25100247Y-2584123D02*
G01X25163239Y-2664133D01*
G01X25163239Y-2584123D02*
G01X25100247Y-2664133D01*
G01X25216833Y-2572693D02*
G01X25216833Y-2566851D01*
G01X25222421Y-2555421D01*
G01X25228263Y-2549833D01*
G01X25239693Y-2543991D01*
G01X25262553Y-2543991D01*
G01X25273983Y-2549833D01*
G01X25279571Y-2555421D01*
G01X25285413Y-2566851D01*
G01X25285413Y-2578281D01*
G01X25279571Y-2589711D01*
G01X25268141Y-2606983D01*
G01X25210991Y-2664133D01*
G01X25291001Y-2664133D01*
G01X25344595Y-2635431D02*
G01X25338753Y-2641273D01*
G01X25344595Y-2646861D01*
G01X25350183Y-2641273D01*
G01X25344595Y-2635431D01*
G01X25432225Y-2543991D02*
G01X25415207Y-2549833D01*
G01X25403777Y-2566851D01*
G01X25397935Y-2595553D01*
G01X25397935Y-2612571D01*
G01X25403777Y-2641273D01*
G01X25415207Y-2658291D01*
G01X25432225Y-2664133D01*
G01X25443655Y-2664133D01*
G01X25460927Y-2658291D01*
G01X25472357Y-2641273D01*
G01X25477945Y-2612571D01*
G01X25477945Y-2595553D01*
G01X25472357Y-2566851D01*
G01X25460927Y-2549833D01*
G01X25443655Y-2543991D01*
G01X25432225Y-2543991D01*
G01X25559987Y-2543991D02*
G01X25542969Y-2549833D01*
G01X25531539Y-2566851D01*
G01X25525697Y-2595553D01*
G01X25525697Y-2612571D01*
G01X25531539Y-2641273D01*
G01X25542969Y-2658291D01*
G01X25559987Y-2664133D01*
G01X25571417Y-2664133D01*
G01X25588689Y-2658291D01*
G01X25600119Y-2641273D01*
G01X25605707Y-2612571D01*
G01X25605707Y-2595553D01*
G01X25600119Y-2566851D01*
G01X25588689Y-2549833D01*
G01X25571417Y-2543991D01*
G01X25559987Y-2543991D01*
G01X25687749Y-2543991D02*
G01X25670731Y-2549833D01*
G01X25659301Y-2566851D01*
G01X25653459Y-2595553D01*
G01X25653459Y-2612571D01*
G01X25659301Y-2641273D01*
G01X25670731Y-2658291D01*
G01X25687749Y-2664133D01*
G01X25699179Y-2664133D01*
G01X25716451Y-2658291D01*
G01X25727881Y-2641273D01*
G01X25733469Y-2612571D01*
G01X25733469Y-2595553D01*
G01X25727881Y-2566851D01*
G01X25716451Y-2549833D01*
G01X25699179Y-2543991D01*
G01X25687749Y-2543991D01*
G01X25781221Y-2584123D02*
G01X25781221Y-2664133D01*
G01X25781221Y-2606983D02*
G01X25798493Y-2589711D01*
G01X25809923Y-2584123D01*
G01X25826941Y-2584123D01*
G01X25838371Y-2589711D01*
G01X25844213Y-2606983D01*
G01X25844213Y-2664133D01*
G01X25844213Y-2606983D02*
G01X25861231Y-2589711D01*
G01X25872661Y-2584123D01*
G01X25889933Y-2584123D01*
G01X25901363Y-2589711D01*
G01X25906951Y-2606983D01*
G01X25906951Y-2664133D01*
G01X25954703Y-2584123D02*
G01X25954703Y-2664133D01*
G01X25954703Y-2606983D02*
G01X25971975Y-2589711D01*
G01X25983405Y-2584123D01*
G01X26000423Y-2584123D01*
G01X26011853Y-2589711D01*
G01X26017695Y-2606983D01*
G01X26017695Y-2664133D01*
G01X26017695Y-2606983D02*
G01X26034713Y-2589711D01*
G01X26046143Y-2584123D01*
G01X26063415Y-2584123D01*
G01X26074845Y-2589711D01*
G01X26080433Y-2606983D01*
G01X26080433Y-2664133D01*
G01X26128185Y-2521131D02*
G01X26139615Y-2532561D01*
G01X26151045Y-2549833D01*
G01X26162475Y-2572693D01*
G01X26168317Y-2601141D01*
G01X26168317Y-2624001D01*
G01X26162475Y-2652703D01*
G01X26151045Y-2675563D01*
G01X26139615Y-2692581D01*
G01X26128185Y-2704011D01*
G01X27224087Y-2543991D02*
G01X27224087Y-2664133D01*
G01X27224087Y-2543991D02*
G01X27275649Y-2543991D01*
G01X27292667Y-2549833D01*
G01X27298509Y-2555421D01*
G01X27304097Y-2566851D01*
G01X27304097Y-2584123D01*
G01X27298509Y-2595553D01*
G01X27292667Y-2601141D01*
G01X27275649Y-2606983D01*
G01X27224087Y-2606983D01*
G01X27391981Y-2543991D02*
G01X27391981Y-2664133D01*
G01X27351849Y-2543991D02*
G01X27431859Y-2543991D01*
G01X27479611Y-2543991D02*
G01X27479611Y-2664133D01*
G01X27559621Y-2543991D02*
G01X27559621Y-2664133D01*
G01X27479611Y-2601141D02*
G01X27559621Y-2601141D01*
G01X28685494Y-2543991D02*
G01X28685494Y-2664133D01*
G01X28685494Y-2543991D02*
G01X28737056Y-2543991D01*
G01X28754074Y-2549833D01*
G01X28759916Y-2555421D01*
G01X28765504Y-2566851D01*
G01X28765504Y-2578281D01*
G01X28759916Y-2589711D01*
G01X28754074Y-2595553D01*
G01X28737056Y-2601141D01*
G01X28685494Y-2601141D01*
G01X28725626Y-2601141D02*
G01X28765504Y-2664133D01*
G01X28841958Y-2584123D02*
G01X28830528Y-2589711D01*
G01X28819098Y-2601141D01*
G01X28813256Y-2618413D01*
G01X28813256Y-2629843D01*
G01X28819098Y-2646861D01*
G01X28830528Y-2658291D01*
G01X28841958Y-2664133D01*
G01X28858976Y-2664133D01*
G01X28870406Y-2658291D01*
G01X28881836Y-2646861D01*
G01X28887678Y-2629843D01*
G01X28887678Y-2618413D01*
G01X28881836Y-2601141D01*
G01X28870406Y-2589711D01*
G01X28858976Y-2584123D01*
G01X28841958Y-2584123D01*
G01X28935430Y-2584123D02*
G01X28935430Y-2641273D01*
G01X28941272Y-2658291D01*
G01X28952702Y-2664133D01*
G01X28969720Y-2664133D01*
G01X28981150Y-2658291D01*
G01X28998422Y-2641273D01*
G01X28998422Y-2584123D02*
G01X28998422Y-2664133D01*
G01X29046174Y-2584123D02*
G01X29046174Y-2664133D01*
G01X29046174Y-2606983D02*
G01X29063446Y-2589711D01*
G01X29074876Y-2584123D01*
G01X29091894Y-2584123D01*
G01X29103324Y-2589711D01*
G01X29109166Y-2606983D01*
G01X29109166Y-2664133D01*
G01X29225498Y-2543991D02*
G01X29225498Y-2664133D01*
G01X29225498Y-2601141D02*
G01X29214068Y-2589711D01*
G01X29202638Y-2584123D01*
G01X29185620Y-2584123D01*
G01X29174190Y-2589711D01*
G01X29162760Y-2601141D01*
G01X29156918Y-2618413D01*
G01X29156918Y-2629843D01*
G01X29162760Y-2646861D01*
G01X29174190Y-2658291D01*
G01X29185620Y-2664133D01*
G01X29202638Y-2664133D01*
G01X29214068Y-2658291D01*
G01X29225498Y-2646861D01*
G01X30116675Y-2543991D02*
G01X30116675Y-2664133D01*
G01X30116675Y-2543991D02*
G01X30168237Y-2543991D01*
G01X30185255Y-2549833D01*
G01X30191097Y-2555421D01*
G01X30196685Y-2566851D01*
G01X30196685Y-2584123D01*
G01X30191097Y-2595553D01*
G01X30185255Y-2601141D01*
G01X30168237Y-2606983D01*
G01X30116675Y-2606983D01*
G01X30313017Y-2584123D02*
G01X30313017Y-2664133D01*
G01X30313017Y-2601141D02*
G01X30301587Y-2589711D01*
G01X30290157Y-2584123D01*
G01X30273139Y-2584123D01*
G01X30261709Y-2589711D01*
G01X30250279Y-2601141D01*
G01X30244437Y-2618413D01*
G01X30244437Y-2629843D01*
G01X30250279Y-2646861D01*
G01X30261709Y-2658291D01*
G01X30273139Y-2664133D01*
G01X30290157Y-2664133D01*
G01X30301587Y-2658291D01*
G01X30313017Y-2646861D01*
G01X30429349Y-2543991D02*
G01X30429349Y-2664133D01*
G01X30429349Y-2601141D02*
G01X30417919Y-2589711D01*
G01X30406489Y-2584123D01*
G01X30389471Y-2584123D01*
G01X30378041Y-2589711D01*
G01X30366611Y-2601141D01*
G01X30360769Y-2618413D01*
G01X30360769Y-2629843D01*
G01X30366611Y-2646861D01*
G01X30378041Y-2658291D01*
G01X30389471Y-2664133D01*
G01X30406489Y-2664133D01*
G01X30417919Y-2658291D01*
G01X30429349Y-2646861D01*
G01X31785854Y-2543991D02*
G01X31785854Y-2664133D01*
G01X31785854Y-2543991D02*
G01X31837416Y-2543991D01*
G01X31854434Y-2549833D01*
G01X31860276Y-2555421D01*
G01X31865864Y-2566851D01*
G01X31865864Y-2578281D01*
G01X31860276Y-2589711D01*
G01X31854434Y-2595553D01*
G01X31837416Y-2601141D01*
G01X31785854Y-2601141D01*
G01X31825986Y-2601141D02*
G01X31865864Y-2664133D01*
G01X31942318Y-2584123D02*
G01X31930888Y-2589711D01*
G01X31919458Y-2601141D01*
G01X31913616Y-2618413D01*
G01X31913616Y-2629843D01*
G01X31919458Y-2646861D01*
G01X31930888Y-2658291D01*
G01X31942318Y-2664133D01*
G01X31959336Y-2664133D01*
G01X31970766Y-2658291D01*
G01X31982196Y-2646861D01*
G01X31988038Y-2629843D01*
G01X31988038Y-2618413D01*
G01X31982196Y-2601141D01*
G01X31970766Y-2589711D01*
G01X31959336Y-2584123D01*
G01X31942318Y-2584123D01*
G01X32035790Y-2584123D02*
G01X32035790Y-2641273D01*
G01X32041632Y-2658291D01*
G01X32053062Y-2664133D01*
G01X32070080Y-2664133D01*
G01X32081510Y-2658291D01*
G01X32098782Y-2641273D01*
G01X32098782Y-2584123D02*
G01X32098782Y-2664133D01*
G01X32146534Y-2584123D02*
G01X32146534Y-2664133D01*
G01X32146534Y-2606983D02*
G01X32163806Y-2589711D01*
G01X32175236Y-2584123D01*
G01X32192254Y-2584123D01*
G01X32203684Y-2589711D01*
G01X32209526Y-2606983D01*
G01X32209526Y-2664133D01*
G01X32325858Y-2543991D02*
G01X32325858Y-2664133D01*
G01X32325858Y-2601141D02*
G01X32314428Y-2589711D01*
G01X32302998Y-2584123D01*
G01X32285980Y-2584123D01*
G01X32274550Y-2589711D01*
G01X32263120Y-2601141D01*
G01X32257278Y-2618413D01*
G01X32257278Y-2629843D01*
G01X32263120Y-2646861D01*
G01X32274550Y-2658291D01*
G01X32285980Y-2664133D01*
G01X32302998Y-2664133D01*
G01X32314428Y-2658291D01*
G01X32325858Y-2646861D01*
G01X33745355Y-2543991D02*
G01X33745355Y-2664133D01*
G01X33705223Y-2543991D02*
G01X33785233Y-2543991D01*
G01X33861687Y-2584123D02*
G01X33850257Y-2589711D01*
G01X33838827Y-2601141D01*
G01X33832985Y-2618413D01*
G01X33832985Y-2629843D01*
G01X33838827Y-2646861D01*
G01X33850257Y-2658291D01*
G01X33861687Y-2664133D01*
G01X33878705Y-2664133D01*
G01X33890135Y-2658291D01*
G01X33901565Y-2646861D01*
G01X33907407Y-2629843D01*
G01X33907407Y-2618413D01*
G01X33901565Y-2601141D01*
G01X33890135Y-2589711D01*
G01X33878705Y-2584123D01*
G01X33861687Y-2584123D01*
G01X33955159Y-2584123D02*
G01X33955159Y-2704011D01*
G01X33955159Y-2601141D02*
G01X33966589Y-2589711D01*
G01X33978019Y-2584123D01*
G01X33995291Y-2584123D01*
G01X34006721Y-2589711D01*
G01X34018151Y-2601141D01*
G01X34023739Y-2618413D01*
G01X34023739Y-2629843D01*
G01X34018151Y-2646861D01*
G01X34006721Y-2658291D01*
G01X33995291Y-2664133D01*
G01X33978019Y-2664133D01*
G01X33966589Y-2658291D01*
G01X33955159Y-2646861D01*
G01X34199507Y-2543991D02*
G01X34199507Y-2664133D01*
G01X34199507Y-2664133D02*
G01X34268087Y-2664133D01*
G01X34384419Y-2584123D02*
G01X34384419Y-2664133D01*
G01X34384419Y-2601141D02*
G01X34372989Y-2589711D01*
G01X34361559Y-2584123D01*
G01X34344541Y-2584123D01*
G01X34333111Y-2589711D01*
G01X34321681Y-2601141D01*
G01X34315839Y-2618413D01*
G01X34315839Y-2629843D01*
G01X34321681Y-2646861D01*
G01X34333111Y-2658291D01*
G01X34344541Y-2664133D01*
G01X34361559Y-2664133D01*
G01X34372989Y-2658291D01*
G01X34384419Y-2646861D01*
G01X34438013Y-2584123D02*
G01X34472303Y-2664133D01*
G01X34506593Y-2584123D02*
G01X34472303Y-2664133D01*
G01X34460873Y-2686993D01*
G01X34449443Y-2698423D01*
G01X34438013Y-2704011D01*
G01X34432171Y-2704011D01*
G01X34554345Y-2618413D02*
G01X34622925Y-2618413D01*
G01X34622925Y-2606983D01*
G01X34617337Y-2595553D01*
G01X34611495Y-2589711D01*
G01X34600065Y-2584123D01*
G01X34583047Y-2584123D01*
G01X34571617Y-2589711D01*
G01X34560187Y-2601141D01*
G01X34554345Y-2618413D01*
G01X34554345Y-2629843D01*
G01X34560187Y-2646861D01*
G01X34571617Y-2658291D01*
G01X34583047Y-2664133D01*
G01X34600065Y-2664133D01*
G01X34611495Y-2658291D01*
G01X34622925Y-2646861D01*
G01X34670677Y-2584123D02*
G01X34670677Y-2664133D01*
G01X34670677Y-2618413D02*
G01X34676519Y-2601141D01*
G01X34687949Y-2589711D01*
G01X34699379Y-2584123D01*
G01X34716397Y-2584123D01*
G01X34764149Y-2612571D02*
G01X34867019Y-2612571D01*
G01X34914771Y-2543991D02*
G01X34914771Y-2664133D01*
G01X34914771Y-2543991D02*
G01X34966333Y-2543991D01*
G01X34983351Y-2549833D01*
G01X34989193Y-2555421D01*
G01X34994781Y-2566851D01*
G01X34994781Y-2578281D01*
G01X34989193Y-2589711D01*
G01X34983351Y-2595553D01*
G01X34966333Y-2601141D01*
G01X34914771Y-2601141D02*
G01X34966333Y-2601141D01*
G01X34983351Y-2606983D01*
G01X34989193Y-2612571D01*
G01X34994781Y-2624001D01*
G01X34994781Y-2641273D01*
G01X34989193Y-2652703D01*
G01X34983351Y-2658291D01*
G01X34966333Y-2664133D01*
G01X34914771Y-2664133D01*
G01X35071235Y-2584123D02*
G01X35059805Y-2589711D01*
G01X35048375Y-2601141D01*
G01X35042533Y-2618413D01*
G01X35042533Y-2629843D01*
G01X35048375Y-2646861D01*
G01X35059805Y-2658291D01*
G01X35071235Y-2664133D01*
G01X35088253Y-2664133D01*
G01X35099683Y-2658291D01*
G01X35111113Y-2646861D01*
G01X35116955Y-2629843D01*
G01X35116955Y-2618413D01*
G01X35111113Y-2601141D01*
G01X35099683Y-2589711D01*
G01X35088253Y-2584123D01*
G01X35071235Y-2584123D01*
G01X35181979Y-2543991D02*
G01X35181979Y-2641273D01*
G01X35187567Y-2658291D01*
G01X35198997Y-2664133D01*
G01X35210427Y-2664133D01*
G01X35164707Y-2584123D02*
G01X35204839Y-2584123D01*
G01X35275451Y-2543991D02*
G01X35275451Y-2641273D01*
G01X35281039Y-2658291D01*
G01X35292469Y-2664133D01*
G01X35303899Y-2664133D01*
G01X35258179Y-2584123D02*
G01X35298311Y-2584123D01*
G01X35380353Y-2584123D02*
G01X35368923Y-2589711D01*
G01X35357493Y-2601141D01*
G01X35351651Y-2618413D01*
G01X35351651Y-2629843D01*
G01X35357493Y-2646861D01*
G01X35368923Y-2658291D01*
G01X35380353Y-2664133D01*
G01X35397371Y-2664133D01*
G01X35408801Y-2658291D01*
G01X35420231Y-2646861D01*
G01X35426073Y-2629843D01*
G01X35426073Y-2618413D01*
G01X35420231Y-2601141D01*
G01X35408801Y-2589711D01*
G01X35397371Y-2584123D01*
G01X35380353Y-2584123D01*
G01X35473825Y-2584123D02*
G01X35473825Y-2664133D01*
G01X35473825Y-2606983D02*
G01X35491097Y-2589711D01*
G01X35502527Y-2584123D01*
G01X35519545Y-2584123D01*
G01X35530975Y-2589711D01*
G01X35536817Y-2606983D01*
G01X35536817Y-2664133D01*
G01X35536817Y-2606983D02*
G01X35553835Y-2589711D01*
G01X35565265Y-2584123D01*
G01X35582537Y-2584123D01*
G01X35593967Y-2589711D01*
G01X35599555Y-2606983D01*
G01X35599555Y-2664133D01*
G01X35775323Y-2543991D02*
G01X35775323Y-2664133D01*
G01X35775323Y-2664133D02*
G01X35843903Y-2664133D01*
G01X35960235Y-2584123D02*
G01X35960235Y-2664133D01*
G01X35960235Y-2601141D02*
G01X35948805Y-2589711D01*
G01X35937375Y-2584123D01*
G01X35920357Y-2584123D01*
G01X35908927Y-2589711D01*
G01X35897497Y-2601141D01*
G01X35891655Y-2618413D01*
G01X35891655Y-2629843D01*
G01X35897497Y-2646861D01*
G01X35908927Y-2658291D01*
G01X35920357Y-2664133D01*
G01X35937375Y-2664133D01*
G01X35948805Y-2658291D01*
G01X35960235Y-2646861D01*
G01X36013829Y-2584123D02*
G01X36048119Y-2664133D01*
G01X36082409Y-2584123D02*
G01X36048119Y-2664133D01*
G01X36036689Y-2686993D01*
G01X36025259Y-2698423D01*
G01X36013829Y-2704011D01*
G01X36007987Y-2704011D01*
G01X36130161Y-2618413D02*
G01X36198741Y-2618413D01*
G01X36198741Y-2606983D01*
G01X36193153Y-2595553D01*
G01X36187311Y-2589711D01*
G01X36175881Y-2584123D01*
G01X36158863Y-2584123D01*
G01X36147433Y-2589711D01*
G01X36136003Y-2601141D01*
G01X36130161Y-2618413D01*
G01X36130161Y-2629843D01*
G01X36136003Y-2646861D01*
G01X36147433Y-2658291D01*
G01X36158863Y-2664133D01*
G01X36175881Y-2664133D01*
G01X36187311Y-2658291D01*
G01X36198741Y-2646861D01*
G01X36246493Y-2584123D02*
G01X36246493Y-2664133D01*
G01X36246493Y-2618413D02*
G01X36252335Y-2601141D01*
G01X36263765Y-2589711D01*
G01X36275195Y-2584123D01*
G01X36292213Y-2584123D01*
G01X21751874Y-3147423D02*
G01X21763304Y-3141835D01*
G01X21780576Y-3124563D01*
G01X21780576Y-3244705D01*
G01X23177467Y-3124563D02*
G01X23240459Y-3124563D01*
G01X23206169Y-3170283D01*
G01X23223187Y-3170283D01*
G01X23234617Y-3176125D01*
G01X23240459Y-3181713D01*
G01X23246047Y-3198985D01*
G01X23246047Y-3210415D01*
G01X23240459Y-3227433D01*
G01X23229029Y-3238863D01*
G01X23211757Y-3244705D01*
G01X23194739Y-3244705D01*
G01X23177467Y-3238863D01*
G01X23171879Y-3233275D01*
G01X23166037Y-3221845D01*
G01X23368221Y-3164695D02*
G01X23362379Y-3181713D01*
G01X23350949Y-3193143D01*
G01X23333931Y-3198985D01*
G01X23328089Y-3198985D01*
G01X23311071Y-3193143D01*
G01X23299641Y-3181713D01*
G01X23293799Y-3164695D01*
G01X23293799Y-3158853D01*
G01X23299641Y-3141835D01*
G01X23311071Y-3130405D01*
G01X23328089Y-3124563D01*
G01X23333931Y-3124563D01*
G01X23350949Y-3130405D01*
G01X23362379Y-3141835D01*
G01X23368221Y-3164695D01*
G01X23368221Y-3193143D01*
G01X23362379Y-3221845D01*
G01X23350949Y-3238863D01*
G01X23333931Y-3244705D01*
G01X23322501Y-3244705D01*
G01X23305229Y-3238863D01*
G01X23299641Y-3227433D01*
G01X23421815Y-3216003D02*
G01X23415973Y-3221845D01*
G01X23421815Y-3227433D01*
G01X23427403Y-3221845D01*
G01X23421815Y-3216003D01*
G01X23532305Y-3124563D02*
G01X23475155Y-3204573D01*
G01X23561007Y-3204573D01*
G01X23532305Y-3124563D02*
G01X23532305Y-3244705D01*
G01X23608759Y-3164695D02*
G01X23671751Y-3244705D01*
G01X23671751Y-3164695D02*
G01X23608759Y-3244705D01*
G01X23730933Y-3124563D02*
G01X23793925Y-3124563D01*
G01X23759635Y-3170283D01*
G01X23776653Y-3170283D01*
G01X23788083Y-3176125D01*
G01X23793925Y-3181713D01*
G01X23799513Y-3198985D01*
G01X23799513Y-3210415D01*
G01X23793925Y-3227433D01*
G01X23782495Y-3238863D01*
G01X23765223Y-3244705D01*
G01X23748205Y-3244705D01*
G01X23730933Y-3238863D01*
G01X23725345Y-3233275D01*
G01X23719503Y-3221845D01*
G01X23921687Y-3164695D02*
G01X23915845Y-3181713D01*
G01X23904415Y-3193143D01*
G01X23887397Y-3198985D01*
G01X23881555Y-3198985D01*
G01X23864537Y-3193143D01*
G01X23853107Y-3181713D01*
G01X23847265Y-3164695D01*
G01X23847265Y-3158853D01*
G01X23853107Y-3141835D01*
G01X23864537Y-3130405D01*
G01X23881555Y-3124563D01*
G01X23887397Y-3124563D01*
G01X23904415Y-3130405D01*
G01X23915845Y-3141835D01*
G01X23921687Y-3164695D01*
G01X23921687Y-3193143D01*
G01X23915845Y-3221845D01*
G01X23904415Y-3238863D01*
G01X23887397Y-3244705D01*
G01X23875967Y-3244705D01*
G01X23858695Y-3238863D01*
G01X23853107Y-3227433D01*
G01X23975281Y-3216003D02*
G01X23969439Y-3221845D01*
G01X23975281Y-3227433D01*
G01X23980869Y-3221845D01*
G01X23975281Y-3216003D01*
G01X24085771Y-3124563D02*
G01X24028621Y-3204573D01*
G01X24114473Y-3204573D01*
G01X24085771Y-3124563D02*
G01X24085771Y-3244705D01*
G01X24162225Y-3164695D02*
G01X24162225Y-3244705D01*
G01X24162225Y-3187555D02*
G01X24179497Y-3170283D01*
G01X24190927Y-3164695D01*
G01X24207945Y-3164695D01*
G01X24219375Y-3170283D01*
G01X24225217Y-3187555D01*
G01X24225217Y-3244705D01*
G01X24225217Y-3187555D02*
G01X24242235Y-3170283D01*
G01X24253665Y-3164695D01*
G01X24270937Y-3164695D01*
G01X24282367Y-3170283D01*
G01X24287955Y-3187555D01*
G01X24287955Y-3244705D01*
G01X24335707Y-3124563D02*
G01X24341549Y-3130405D01*
G01X24347137Y-3124563D01*
G01X24341549Y-3118975D01*
G01X24335707Y-3124563D01*
G01X24341549Y-3164695D02*
G01X24341549Y-3244705D01*
G01X24394889Y-3124563D02*
G01X24394889Y-3244705D01*
G01X24482773Y-3101703D02*
G01X24471343Y-3113133D01*
G01X24459913Y-3130405D01*
G01X24448483Y-3153265D01*
G01X24442641Y-3181713D01*
G01X24442641Y-3204573D01*
G01X24448483Y-3233275D01*
G01X24459913Y-3256135D01*
G01X24471343Y-3273153D01*
G01X24482773Y-3284583D01*
G01X24530525Y-3147423D02*
G01X24541955Y-3141835D01*
G01X24559227Y-3124563D01*
G01X24559227Y-3244705D01*
G01X24612821Y-3216003D02*
G01X24606979Y-3221845D01*
G01X24612821Y-3227433D01*
G01X24618409Y-3221845D01*
G01X24612821Y-3216003D01*
G01X24700451Y-3124563D02*
G01X24683433Y-3130405D01*
G01X24672003Y-3147423D01*
G01X24666161Y-3176125D01*
G01X24666161Y-3193143D01*
G01X24672003Y-3221845D01*
G01X24683433Y-3238863D01*
G01X24700451Y-3244705D01*
G01X24711881Y-3244705D01*
G01X24729153Y-3238863D01*
G01X24740583Y-3221845D01*
G01X24746171Y-3193143D01*
G01X24746171Y-3176125D01*
G01X24740583Y-3147423D01*
G01X24729153Y-3130405D01*
G01X24711881Y-3124563D01*
G01X24700451Y-3124563D01*
G01X24828213Y-3124563D02*
G01X24811195Y-3130405D01*
G01X24799765Y-3147423D01*
G01X24793923Y-3176125D01*
G01X24793923Y-3193143D01*
G01X24799765Y-3221845D01*
G01X24811195Y-3238863D01*
G01X24828213Y-3244705D01*
G01X24839643Y-3244705D01*
G01X24856915Y-3238863D01*
G01X24868345Y-3221845D01*
G01X24873933Y-3193143D01*
G01X24873933Y-3176125D01*
G01X24868345Y-3147423D01*
G01X24856915Y-3130405D01*
G01X24839643Y-3124563D01*
G01X24828213Y-3124563D01*
G01X24955975Y-3124563D02*
G01X24938957Y-3130405D01*
G01X24927527Y-3147423D01*
G01X24921685Y-3176125D01*
G01X24921685Y-3193143D01*
G01X24927527Y-3221845D01*
G01X24938957Y-3238863D01*
G01X24955975Y-3244705D01*
G01X24967405Y-3244705D01*
G01X24984677Y-3238863D01*
G01X24996107Y-3221845D01*
G01X25001695Y-3193143D01*
G01X25001695Y-3176125D01*
G01X24996107Y-3147423D01*
G01X24984677Y-3130405D01*
G01X24967405Y-3124563D01*
G01X24955975Y-3124563D01*
G01X25049447Y-3164695D02*
G01X25112439Y-3244705D01*
G01X25112439Y-3164695D02*
G01X25049447Y-3244705D01*
G01X25160191Y-3147423D02*
G01X25171621Y-3141835D01*
G01X25188893Y-3124563D01*
G01X25188893Y-3244705D01*
G01X25242487Y-3216003D02*
G01X25236645Y-3221845D01*
G01X25242487Y-3227433D01*
G01X25248075Y-3221845D01*
G01X25242487Y-3216003D01*
G01X25330117Y-3124563D02*
G01X25313099Y-3130405D01*
G01X25301669Y-3147423D01*
G01X25295827Y-3176125D01*
G01X25295827Y-3193143D01*
G01X25301669Y-3221845D01*
G01X25313099Y-3238863D01*
G01X25330117Y-3244705D01*
G01X25341547Y-3244705D01*
G01X25358819Y-3238863D01*
G01X25370249Y-3221845D01*
G01X25375837Y-3193143D01*
G01X25375837Y-3176125D01*
G01X25370249Y-3147423D01*
G01X25358819Y-3130405D01*
G01X25341547Y-3124563D01*
G01X25330117Y-3124563D01*
G01X25457879Y-3124563D02*
G01X25440861Y-3130405D01*
G01X25429431Y-3147423D01*
G01X25423589Y-3176125D01*
G01X25423589Y-3193143D01*
G01X25429431Y-3221845D01*
G01X25440861Y-3238863D01*
G01X25457879Y-3244705D01*
G01X25469309Y-3244705D01*
G01X25486581Y-3238863D01*
G01X25498011Y-3221845D01*
G01X25503599Y-3193143D01*
G01X25503599Y-3176125D01*
G01X25498011Y-3147423D01*
G01X25486581Y-3130405D01*
G01X25469309Y-3124563D01*
G01X25457879Y-3124563D01*
G01X25585641Y-3124563D02*
G01X25568623Y-3130405D01*
G01X25557193Y-3147423D01*
G01X25551351Y-3176125D01*
G01X25551351Y-3193143D01*
G01X25557193Y-3221845D01*
G01X25568623Y-3238863D01*
G01X25585641Y-3244705D01*
G01X25597071Y-3244705D01*
G01X25614343Y-3238863D01*
G01X25625773Y-3221845D01*
G01X25631361Y-3193143D01*
G01X25631361Y-3176125D01*
G01X25625773Y-3147423D01*
G01X25614343Y-3130405D01*
G01X25597071Y-3124563D01*
G01X25585641Y-3124563D01*
G01X25679113Y-3164695D02*
G01X25679113Y-3244705D01*
G01X25679113Y-3187555D02*
G01X25696385Y-3170283D01*
G01X25707815Y-3164695D01*
G01X25724833Y-3164695D01*
G01X25736263Y-3170283D01*
G01X25742105Y-3187555D01*
G01X25742105Y-3244705D01*
G01X25742105Y-3187555D02*
G01X25759123Y-3170283D01*
G01X25770553Y-3164695D01*
G01X25787825Y-3164695D01*
G01X25799255Y-3170283D01*
G01X25804843Y-3187555D01*
G01X25804843Y-3244705D01*
G01X25852595Y-3164695D02*
G01X25852595Y-3244705D01*
G01X25852595Y-3187555D02*
G01X25869867Y-3170283D01*
G01X25881297Y-3164695D01*
G01X25898315Y-3164695D01*
G01X25909745Y-3170283D01*
G01X25915587Y-3187555D01*
G01X25915587Y-3244705D01*
G01X25915587Y-3187555D02*
G01X25932605Y-3170283D01*
G01X25944035Y-3164695D01*
G01X25961307Y-3164695D01*
G01X25972737Y-3170283D01*
G01X25978325Y-3187555D01*
G01X25978325Y-3244705D01*
G01X26026077Y-3101703D02*
G01X26037507Y-3113133D01*
G01X26048937Y-3130405D01*
G01X26060367Y-3153265D01*
G01X26066209Y-3181713D01*
G01X26066209Y-3204573D01*
G01X26060367Y-3233275D01*
G01X26048937Y-3256135D01*
G01X26037507Y-3273153D01*
G01X26026077Y-3284583D01*
G01X27224087Y-3124563D02*
G01X27224087Y-3244705D01*
G01X27224087Y-3124563D02*
G01X27275649Y-3124563D01*
G01X27292667Y-3130405D01*
G01X27298509Y-3135993D01*
G01X27304097Y-3147423D01*
G01X27304097Y-3164695D01*
G01X27298509Y-3176125D01*
G01X27292667Y-3181713D01*
G01X27275649Y-3187555D01*
G01X27224087Y-3187555D01*
G01X27391981Y-3124563D02*
G01X27391981Y-3244705D01*
G01X27351849Y-3124563D02*
G01X27431859Y-3124563D01*
G01X27479611Y-3124563D02*
G01X27479611Y-3244705D01*
G01X27559621Y-3124563D02*
G01X27559621Y-3244705D01*
G01X27479611Y-3181713D02*
G01X27559621Y-3181713D01*
G01X28685494Y-3124563D02*
G01X28685494Y-3244705D01*
G01X28685494Y-3124563D02*
G01X28737056Y-3124563D01*
G01X28754074Y-3130405D01*
G01X28759916Y-3135993D01*
G01X28765504Y-3147423D01*
G01X28765504Y-3158853D01*
G01X28759916Y-3170283D01*
G01X28754074Y-3176125D01*
G01X28737056Y-3181713D01*
G01X28685494Y-3181713D01*
G01X28725626Y-3181713D02*
G01X28765504Y-3244705D01*
G01X28841958Y-3164695D02*
G01X28830528Y-3170283D01*
G01X28819098Y-3181713D01*
G01X28813256Y-3198985D01*
G01X28813256Y-3210415D01*
G01X28819098Y-3227433D01*
G01X28830528Y-3238863D01*
G01X28841958Y-3244705D01*
G01X28858976Y-3244705D01*
G01X28870406Y-3238863D01*
G01X28881836Y-3227433D01*
G01X28887678Y-3210415D01*
G01X28887678Y-3198985D01*
G01X28881836Y-3181713D01*
G01X28870406Y-3170283D01*
G01X28858976Y-3164695D01*
G01X28841958Y-3164695D01*
G01X28935430Y-3164695D02*
G01X28935430Y-3221845D01*
G01X28941272Y-3238863D01*
G01X28952702Y-3244705D01*
G01X28969720Y-3244705D01*
G01X28981150Y-3238863D01*
G01X28998422Y-3221845D01*
G01X28998422Y-3164695D02*
G01X28998422Y-3244705D01*
G01X29046174Y-3164695D02*
G01X29046174Y-3244705D01*
G01X29046174Y-3187555D02*
G01X29063446Y-3170283D01*
G01X29074876Y-3164695D01*
G01X29091894Y-3164695D01*
G01X29103324Y-3170283D01*
G01X29109166Y-3187555D01*
G01X29109166Y-3244705D01*
G01X29225498Y-3124563D02*
G01X29225498Y-3244705D01*
G01X29225498Y-3181713D02*
G01X29214068Y-3170283D01*
G01X29202638Y-3164695D01*
G01X29185620Y-3164695D01*
G01X29174190Y-3170283D01*
G01X29162760Y-3181713D01*
G01X29156918Y-3198985D01*
G01X29156918Y-3210415D01*
G01X29162760Y-3227433D01*
G01X29174190Y-3238863D01*
G01X29185620Y-3244705D01*
G01X29202638Y-3244705D01*
G01X29214068Y-3238863D01*
G01X29225498Y-3227433D01*
G01X30116675Y-3124563D02*
G01X30116675Y-3244705D01*
G01X30116675Y-3124563D02*
G01X30168237Y-3124563D01*
G01X30185255Y-3130405D01*
G01X30191097Y-3135993D01*
G01X30196685Y-3147423D01*
G01X30196685Y-3164695D01*
G01X30191097Y-3176125D01*
G01X30185255Y-3181713D01*
G01X30168237Y-3187555D01*
G01X30116675Y-3187555D01*
G01X30313017Y-3164695D02*
G01X30313017Y-3244705D01*
G01X30313017Y-3181713D02*
G01X30301587Y-3170283D01*
G01X30290157Y-3164695D01*
G01X30273139Y-3164695D01*
G01X30261709Y-3170283D01*
G01X30250279Y-3181713D01*
G01X30244437Y-3198985D01*
G01X30244437Y-3210415D01*
G01X30250279Y-3227433D01*
G01X30261709Y-3238863D01*
G01X30273139Y-3244705D01*
G01X30290157Y-3244705D01*
G01X30301587Y-3238863D01*
G01X30313017Y-3227433D01*
G01X30429349Y-3124563D02*
G01X30429349Y-3244705D01*
G01X30429349Y-3181713D02*
G01X30417919Y-3170283D01*
G01X30406489Y-3164695D01*
G01X30389471Y-3164695D01*
G01X30378041Y-3170283D01*
G01X30366611Y-3181713D01*
G01X30360769Y-3198985D01*
G01X30360769Y-3210415D01*
G01X30366611Y-3227433D01*
G01X30378041Y-3238863D01*
G01X30389471Y-3244705D01*
G01X30406489Y-3244705D01*
G01X30417919Y-3238863D01*
G01X30429349Y-3227433D01*
G01X31785854Y-3124563D02*
G01X31785854Y-3244705D01*
G01X31785854Y-3124563D02*
G01X31837416Y-3124563D01*
G01X31854434Y-3130405D01*
G01X31860276Y-3135993D01*
G01X31865864Y-3147423D01*
G01X31865864Y-3158853D01*
G01X31860276Y-3170283D01*
G01X31854434Y-3176125D01*
G01X31837416Y-3181713D01*
G01X31785854Y-3181713D01*
G01X31825986Y-3181713D02*
G01X31865864Y-3244705D01*
G01X31942318Y-3164695D02*
G01X31930888Y-3170283D01*
G01X31919458Y-3181713D01*
G01X31913616Y-3198985D01*
G01X31913616Y-3210415D01*
G01X31919458Y-3227433D01*
G01X31930888Y-3238863D01*
G01X31942318Y-3244705D01*
G01X31959336Y-3244705D01*
G01X31970766Y-3238863D01*
G01X31982196Y-3227433D01*
G01X31988038Y-3210415D01*
G01X31988038Y-3198985D01*
G01X31982196Y-3181713D01*
G01X31970766Y-3170283D01*
G01X31959336Y-3164695D01*
G01X31942318Y-3164695D01*
G01X32035790Y-3164695D02*
G01X32035790Y-3221845D01*
G01X32041632Y-3238863D01*
G01X32053062Y-3244705D01*
G01X32070080Y-3244705D01*
G01X32081510Y-3238863D01*
G01X32098782Y-3221845D01*
G01X32098782Y-3164695D02*
G01X32098782Y-3244705D01*
G01X32146534Y-3164695D02*
G01X32146534Y-3244705D01*
G01X32146534Y-3187555D02*
G01X32163806Y-3170283D01*
G01X32175236Y-3164695D01*
G01X32192254Y-3164695D01*
G01X32203684Y-3170283D01*
G01X32209526Y-3187555D01*
G01X32209526Y-3244705D01*
G01X32325858Y-3124563D02*
G01X32325858Y-3244705D01*
G01X32325858Y-3181713D02*
G01X32314428Y-3170283D01*
G01X32302998Y-3164695D01*
G01X32285980Y-3164695D01*
G01X32274550Y-3170283D01*
G01X32263120Y-3181713D01*
G01X32257278Y-3198985D01*
G01X32257278Y-3210415D01*
G01X32263120Y-3227433D01*
G01X32274550Y-3238863D01*
G01X32285980Y-3244705D01*
G01X32302998Y-3244705D01*
G01X32314428Y-3238863D01*
G01X32325858Y-3227433D01*
G01X33745355Y-3124563D02*
G01X33745355Y-3244705D01*
G01X33705223Y-3124563D02*
G01X33785233Y-3124563D01*
G01X33861687Y-3164695D02*
G01X33850257Y-3170283D01*
G01X33838827Y-3181713D01*
G01X33832985Y-3198985D01*
G01X33832985Y-3210415D01*
G01X33838827Y-3227433D01*
G01X33850257Y-3238863D01*
G01X33861687Y-3244705D01*
G01X33878705Y-3244705D01*
G01X33890135Y-3238863D01*
G01X33901565Y-3227433D01*
G01X33907407Y-3210415D01*
G01X33907407Y-3198985D01*
G01X33901565Y-3181713D01*
G01X33890135Y-3170283D01*
G01X33878705Y-3164695D01*
G01X33861687Y-3164695D01*
G01X33955159Y-3164695D02*
G01X33955159Y-3284583D01*
G01X33955159Y-3181713D02*
G01X33966589Y-3170283D01*
G01X33978019Y-3164695D01*
G01X33995291Y-3164695D01*
G01X34006721Y-3170283D01*
G01X34018151Y-3181713D01*
G01X34023739Y-3198985D01*
G01X34023739Y-3210415D01*
G01X34018151Y-3227433D01*
G01X34006721Y-3238863D01*
G01X33995291Y-3244705D01*
G01X33978019Y-3244705D01*
G01X33966589Y-3238863D01*
G01X33955159Y-3227433D01*
G01X34199507Y-3124563D02*
G01X34199507Y-3244705D01*
G01X34199507Y-3244705D02*
G01X34268087Y-3244705D01*
G01X34384419Y-3164695D02*
G01X34384419Y-3244705D01*
G01X34384419Y-3181713D02*
G01X34372989Y-3170283D01*
G01X34361559Y-3164695D01*
G01X34344541Y-3164695D01*
G01X34333111Y-3170283D01*
G01X34321681Y-3181713D01*
G01X34315839Y-3198985D01*
G01X34315839Y-3210415D01*
G01X34321681Y-3227433D01*
G01X34333111Y-3238863D01*
G01X34344541Y-3244705D01*
G01X34361559Y-3244705D01*
G01X34372989Y-3238863D01*
G01X34384419Y-3227433D01*
G01X34438013Y-3164695D02*
G01X34472303Y-3244705D01*
G01X34506593Y-3164695D02*
G01X34472303Y-3244705D01*
G01X34460873Y-3267565D01*
G01X34449443Y-3278995D01*
G01X34438013Y-3284583D01*
G01X34432171Y-3284583D01*
G01X34554345Y-3198985D02*
G01X34622925Y-3198985D01*
G01X34622925Y-3187555D01*
G01X34617337Y-3176125D01*
G01X34611495Y-3170283D01*
G01X34600065Y-3164695D01*
G01X34583047Y-3164695D01*
G01X34571617Y-3170283D01*
G01X34560187Y-3181713D01*
G01X34554345Y-3198985D01*
G01X34554345Y-3210415D01*
G01X34560187Y-3227433D01*
G01X34571617Y-3238863D01*
G01X34583047Y-3244705D01*
G01X34600065Y-3244705D01*
G01X34611495Y-3238863D01*
G01X34622925Y-3227433D01*
G01X34670677Y-3164695D02*
G01X34670677Y-3244705D01*
G01X34670677Y-3198985D02*
G01X34676519Y-3181713D01*
G01X34687949Y-3170283D01*
G01X34699379Y-3164695D01*
G01X34716397Y-3164695D01*
G01X34764149Y-3193143D02*
G01X34867019Y-3193143D01*
G01X34914771Y-3124563D02*
G01X34914771Y-3244705D01*
G01X34914771Y-3124563D02*
G01X34966333Y-3124563D01*
G01X34983351Y-3130405D01*
G01X34989193Y-3135993D01*
G01X34994781Y-3147423D01*
G01X34994781Y-3158853D01*
G01X34989193Y-3170283D01*
G01X34983351Y-3176125D01*
G01X34966333Y-3181713D01*
G01X34914771Y-3181713D02*
G01X34966333Y-3181713D01*
G01X34983351Y-3187555D01*
G01X34989193Y-3193143D01*
G01X34994781Y-3204573D01*
G01X34994781Y-3221845D01*
G01X34989193Y-3233275D01*
G01X34983351Y-3238863D01*
G01X34966333Y-3244705D01*
G01X34914771Y-3244705D01*
G01X35071235Y-3164695D02*
G01X35059805Y-3170283D01*
G01X35048375Y-3181713D01*
G01X35042533Y-3198985D01*
G01X35042533Y-3210415D01*
G01X35048375Y-3227433D01*
G01X35059805Y-3238863D01*
G01X35071235Y-3244705D01*
G01X35088253Y-3244705D01*
G01X35099683Y-3238863D01*
G01X35111113Y-3227433D01*
G01X35116955Y-3210415D01*
G01X35116955Y-3198985D01*
G01X35111113Y-3181713D01*
G01X35099683Y-3170283D01*
G01X35088253Y-3164695D01*
G01X35071235Y-3164695D01*
G01X35181979Y-3124563D02*
G01X35181979Y-3221845D01*
G01X35187567Y-3238863D01*
G01X35198997Y-3244705D01*
G01X35210427Y-3244705D01*
G01X35164707Y-3164695D02*
G01X35204839Y-3164695D01*
G01X35275451Y-3124563D02*
G01X35275451Y-3221845D01*
G01X35281039Y-3238863D01*
G01X35292469Y-3244705D01*
G01X35303899Y-3244705D01*
G01X35258179Y-3164695D02*
G01X35298311Y-3164695D01*
G01X35380353Y-3164695D02*
G01X35368923Y-3170283D01*
G01X35357493Y-3181713D01*
G01X35351651Y-3198985D01*
G01X35351651Y-3210415D01*
G01X35357493Y-3227433D01*
G01X35368923Y-3238863D01*
G01X35380353Y-3244705D01*
G01X35397371Y-3244705D01*
G01X35408801Y-3238863D01*
G01X35420231Y-3227433D01*
G01X35426073Y-3210415D01*
G01X35426073Y-3198985D01*
G01X35420231Y-3181713D01*
G01X35408801Y-3170283D01*
G01X35397371Y-3164695D01*
G01X35380353Y-3164695D01*
G01X35473825Y-3164695D02*
G01X35473825Y-3244705D01*
G01X35473825Y-3187555D02*
G01X35491097Y-3170283D01*
G01X35502527Y-3164695D01*
G01X35519545Y-3164695D01*
G01X35530975Y-3170283D01*
G01X35536817Y-3187555D01*
G01X35536817Y-3244705D01*
G01X35536817Y-3187555D02*
G01X35553835Y-3170283D01*
G01X35565265Y-3164695D01*
G01X35582537Y-3164695D01*
G01X35593967Y-3170283D01*
G01X35599555Y-3187555D01*
G01X35599555Y-3244705D01*
G01X35775323Y-3124563D02*
G01X35775323Y-3244705D01*
G01X35775323Y-3244705D02*
G01X35843903Y-3244705D01*
G01X35960235Y-3164695D02*
G01X35960235Y-3244705D01*
G01X35960235Y-3181713D02*
G01X35948805Y-3170283D01*
G01X35937375Y-3164695D01*
G01X35920357Y-3164695D01*
G01X35908927Y-3170283D01*
G01X35897497Y-3181713D01*
G01X35891655Y-3198985D01*
G01X35891655Y-3210415D01*
G01X35897497Y-3227433D01*
G01X35908927Y-3238863D01*
G01X35920357Y-3244705D01*
G01X35937375Y-3244705D01*
G01X35948805Y-3238863D01*
G01X35960235Y-3227433D01*
G01X36013829Y-3164695D02*
G01X36048119Y-3244705D01*
G01X36082409Y-3164695D02*
G01X36048119Y-3244705D01*
G01X36036689Y-3267565D01*
G01X36025259Y-3278995D01*
G01X36013829Y-3284583D01*
G01X36007987Y-3284583D01*
G01X36130161Y-3198985D02*
G01X36198741Y-3198985D01*
G01X36198741Y-3187555D01*
G01X36193153Y-3176125D01*
G01X36187311Y-3170283D01*
G01X36175881Y-3164695D01*
G01X36158863Y-3164695D01*
G01X36147433Y-3170283D01*
G01X36136003Y-3181713D01*
G01X36130161Y-3198985D01*
G01X36130161Y-3210415D01*
G01X36136003Y-3227433D01*
G01X36147433Y-3238863D01*
G01X36158863Y-3244705D01*
G01X36175881Y-3244705D01*
G01X36187311Y-3238863D01*
G01X36198741Y-3227433D01*
G01X36246493Y-3164695D02*
G01X36246493Y-3244705D01*
G01X36246493Y-3198985D02*
G01X36252335Y-3181713D01*
G01X36263765Y-3170283D01*
G01X36275195Y-3164695D01*
G01X36292213Y-3164695D01*
G01X21780576Y-3705134D02*
G01X21763304Y-3710976D01*
G01X21757716Y-3722406D01*
G01X21757716Y-3733836D01*
G01X21763304Y-3745266D01*
G01X21774734Y-3750854D01*
G01X21797594Y-3756696D01*
G01X21814866Y-3762284D01*
G01X21826296Y-3773714D01*
G01X21831884Y-3785144D01*
G01X21831884Y-3802416D01*
G01X21826296Y-3813846D01*
G01X21820454Y-3819434D01*
G01X21803436Y-3825276D01*
G01X21780576Y-3825276D01*
G01X21763304Y-3819434D01*
G01X21757716Y-3813846D01*
G01X21751874Y-3802416D01*
G01X21751874Y-3785144D01*
G01X21757716Y-3773714D01*
G01X21769146Y-3762284D01*
G01X21786164Y-3756696D01*
G01X21809024Y-3750854D01*
G01X21820454Y-3745266D01*
G01X21826296Y-3733836D01*
G01X21826296Y-3722406D01*
G01X21820454Y-3710976D01*
G01X21803436Y-3705134D01*
G01X21780576Y-3705134D01*
G01X23166037Y-3727994D02*
G01X23177467Y-3722406D01*
G01X23194739Y-3705134D01*
G01X23194739Y-3825276D01*
G01X23248333Y-3733836D02*
G01X23248333Y-3727994D01*
G01X23253921Y-3716564D01*
G01X23259763Y-3710976D01*
G01X23271193Y-3705134D01*
G01X23294053Y-3705134D01*
G01X23305483Y-3710976D01*
G01X23311071Y-3716564D01*
G01X23316913Y-3727994D01*
G01X23316913Y-3739424D01*
G01X23311071Y-3750854D01*
G01X23299641Y-3768126D01*
G01X23242491Y-3825276D01*
G01X23322501Y-3825276D01*
G01X23376095Y-3796574D02*
G01X23370253Y-3802416D01*
G01X23376095Y-3808004D01*
G01X23381683Y-3802416D01*
G01X23376095Y-3796574D01*
G01X23463725Y-3705134D02*
G01X23446707Y-3710976D01*
G01X23435277Y-3727994D01*
G01X23429435Y-3756696D01*
G01X23429435Y-3773714D01*
G01X23435277Y-3802416D01*
G01X23446707Y-3819434D01*
G01X23463725Y-3825276D01*
G01X23475155Y-3825276D01*
G01X23492427Y-3819434D01*
G01X23503857Y-3802416D01*
G01X23509445Y-3773714D01*
G01X23509445Y-3756696D01*
G01X23503857Y-3727994D01*
G01X23492427Y-3710976D01*
G01X23475155Y-3705134D01*
G01X23463725Y-3705134D01*
G01X23557197Y-3745266D02*
G01X23557197Y-3825276D01*
G01X23557197Y-3768126D02*
G01X23574469Y-3750854D01*
G01X23585899Y-3745266D01*
G01X23602917Y-3745266D01*
G01X23614347Y-3750854D01*
G01X23620189Y-3768126D01*
G01X23620189Y-3825276D01*
G01X23620189Y-3768126D02*
G01X23637207Y-3750854D01*
G01X23648637Y-3745266D01*
G01X23665909Y-3745266D01*
G01X23677339Y-3750854D01*
G01X23682927Y-3768126D01*
G01X23682927Y-3825276D01*
G01X23730679Y-3705134D02*
G01X23736521Y-3710976D01*
G01X23742109Y-3705134D01*
G01X23736521Y-3699546D01*
G01X23730679Y-3705134D01*
G01X23736521Y-3745266D02*
G01X23736521Y-3825276D01*
G01X23789861Y-3705134D02*
G01X23789861Y-3825276D01*
G01X23877745Y-3682274D02*
G01X23866315Y-3693704D01*
G01X23854885Y-3710976D01*
G01X23843455Y-3733836D01*
G01X23837613Y-3762284D01*
G01X23837613Y-3785144D01*
G01X23843455Y-3813846D01*
G01X23854885Y-3836706D01*
G01X23866315Y-3853724D01*
G01X23877745Y-3865154D01*
G01X23959787Y-3705134D02*
G01X23942769Y-3710976D01*
G01X23931339Y-3727994D01*
G01X23925497Y-3756696D01*
G01X23925497Y-3773714D01*
G01X23931339Y-3802416D01*
G01X23942769Y-3819434D01*
G01X23959787Y-3825276D01*
G01X23971217Y-3825276D01*
G01X23988489Y-3819434D01*
G01X23999919Y-3802416D01*
G01X24005507Y-3773714D01*
G01X24005507Y-3756696D01*
G01X23999919Y-3727994D01*
G01X23988489Y-3710976D01*
G01X23971217Y-3705134D01*
G01X23959787Y-3705134D01*
G01X24059101Y-3796574D02*
G01X24053259Y-3802416D01*
G01X24059101Y-3808004D01*
G01X24064689Y-3802416D01*
G01X24059101Y-3796574D01*
G01X24123871Y-3705134D02*
G01X24186863Y-3705134D01*
G01X24152573Y-3750854D01*
G01X24169591Y-3750854D01*
G01X24181021Y-3756696D01*
G01X24186863Y-3762284D01*
G01X24192451Y-3779556D01*
G01X24192451Y-3790986D01*
G01X24186863Y-3808004D01*
G01X24175433Y-3819434D01*
G01X24158161Y-3825276D01*
G01X24141143Y-3825276D01*
G01X24123871Y-3819434D01*
G01X24118283Y-3813846D01*
G01X24112441Y-3802416D01*
G01X24274493Y-3705134D02*
G01X24257475Y-3710976D01*
G01X24246045Y-3727994D01*
G01X24240203Y-3756696D01*
G01X24240203Y-3773714D01*
G01X24246045Y-3802416D01*
G01X24257475Y-3819434D01*
G01X24274493Y-3825276D01*
G01X24285923Y-3825276D01*
G01X24303195Y-3819434D01*
G01X24314625Y-3802416D01*
G01X24320213Y-3773714D01*
G01X24320213Y-3756696D01*
G01X24314625Y-3727994D01*
G01X24303195Y-3710976D01*
G01X24285923Y-3705134D01*
G01X24274493Y-3705134D01*
G01X24436545Y-3705134D02*
G01X24379395Y-3705134D01*
G01X24373807Y-3756696D01*
G01X24379395Y-3750854D01*
G01X24396667Y-3745266D01*
G01X24413685Y-3745266D01*
G01X24430957Y-3750854D01*
G01X24442387Y-3762284D01*
G01X24447975Y-3779556D01*
G01X24447975Y-3790986D01*
G01X24442387Y-3808004D01*
G01X24430957Y-3819434D01*
G01X24413685Y-3825276D01*
G01X24396667Y-3825276D01*
G01X24379395Y-3819434D01*
G01X24373807Y-3813846D01*
G01X24367965Y-3802416D01*
G01X24495727Y-3745266D02*
G01X24495727Y-3825276D01*
G01X24495727Y-3768126D02*
G01X24512999Y-3750854D01*
G01X24524429Y-3745266D01*
G01X24541447Y-3745266D01*
G01X24552877Y-3750854D01*
G01X24558719Y-3768126D01*
G01X24558719Y-3825276D01*
G01X24558719Y-3768126D02*
G01X24575737Y-3750854D01*
G01X24587167Y-3745266D01*
G01X24604439Y-3745266D01*
G01X24615869Y-3750854D01*
G01X24621457Y-3768126D01*
G01X24621457Y-3825276D01*
G01X24669209Y-3745266D02*
G01X24669209Y-3825276D01*
G01X24669209Y-3768126D02*
G01X24686481Y-3750854D01*
G01X24697911Y-3745266D01*
G01X24714929Y-3745266D01*
G01X24726359Y-3750854D01*
G01X24732201Y-3768126D01*
G01X24732201Y-3825276D01*
G01X24732201Y-3768126D02*
G01X24749219Y-3750854D01*
G01X24760649Y-3745266D01*
G01X24777921Y-3745266D01*
G01X24789351Y-3750854D01*
G01X24794939Y-3768126D01*
G01X24794939Y-3825276D01*
G01X24842691Y-3682274D02*
G01X24854121Y-3693704D01*
G01X24865551Y-3710976D01*
G01X24876981Y-3733836D01*
G01X24882823Y-3762284D01*
G01X24882823Y-3785144D01*
G01X24876981Y-3813846D01*
G01X24865551Y-3836706D01*
G01X24854121Y-3853724D01*
G01X24842691Y-3865154D01*
G01X27224087Y-3705134D02*
G01X27224087Y-3825276D01*
G01X27224087Y-3705134D02*
G01X27275649Y-3705134D01*
G01X27292667Y-3710976D01*
G01X27298509Y-3716564D01*
G01X27304097Y-3727994D01*
G01X27304097Y-3745266D01*
G01X27298509Y-3756696D01*
G01X27292667Y-3762284D01*
G01X27275649Y-3768126D01*
G01X27224087Y-3768126D01*
G01X27391981Y-3705134D02*
G01X27391981Y-3825276D01*
G01X27351849Y-3705134D02*
G01X27431859Y-3705134D01*
G01X27479611Y-3705134D02*
G01X27479611Y-3825276D01*
G01X27559621Y-3705134D02*
G01X27559621Y-3825276D01*
G01X27479611Y-3762284D02*
G01X27559621Y-3762284D01*
G01X28685494Y-3705134D02*
G01X28685494Y-3825276D01*
G01X28685494Y-3705134D02*
G01X28737056Y-3705134D01*
G01X28754074Y-3710976D01*
G01X28759916Y-3716564D01*
G01X28765504Y-3727994D01*
G01X28765504Y-3739424D01*
G01X28759916Y-3750854D01*
G01X28754074Y-3756696D01*
G01X28737056Y-3762284D01*
G01X28685494Y-3762284D01*
G01X28725626Y-3762284D02*
G01X28765504Y-3825276D01*
G01X28841958Y-3745266D02*
G01X28830528Y-3750854D01*
G01X28819098Y-3762284D01*
G01X28813256Y-3779556D01*
G01X28813256Y-3790986D01*
G01X28819098Y-3808004D01*
G01X28830528Y-3819434D01*
G01X28841958Y-3825276D01*
G01X28858976Y-3825276D01*
G01X28870406Y-3819434D01*
G01X28881836Y-3808004D01*
G01X28887678Y-3790986D01*
G01X28887678Y-3779556D01*
G01X28881836Y-3762284D01*
G01X28870406Y-3750854D01*
G01X28858976Y-3745266D01*
G01X28841958Y-3745266D01*
G01X28935430Y-3745266D02*
G01X28935430Y-3802416D01*
G01X28941272Y-3819434D01*
G01X28952702Y-3825276D01*
G01X28969720Y-3825276D01*
G01X28981150Y-3819434D01*
G01X28998422Y-3802416D01*
G01X28998422Y-3745266D02*
G01X28998422Y-3825276D01*
G01X29046174Y-3745266D02*
G01X29046174Y-3825276D01*
G01X29046174Y-3768126D02*
G01X29063446Y-3750854D01*
G01X29074876Y-3745266D01*
G01X29091894Y-3745266D01*
G01X29103324Y-3750854D01*
G01X29109166Y-3768126D01*
G01X29109166Y-3825276D01*
G01X29225498Y-3705134D02*
G01X29225498Y-3825276D01*
G01X29225498Y-3762284D02*
G01X29214068Y-3750854D01*
G01X29202638Y-3745266D01*
G01X29185620Y-3745266D01*
G01X29174190Y-3750854D01*
G01X29162760Y-3762284D01*
G01X29156918Y-3779556D01*
G01X29156918Y-3790986D01*
G01X29162760Y-3808004D01*
G01X29174190Y-3819434D01*
G01X29185620Y-3825276D01*
G01X29202638Y-3825276D01*
G01X29214068Y-3819434D01*
G01X29225498Y-3808004D01*
G01X30116675Y-3705134D02*
G01X30162395Y-3825276D01*
G01X30208115Y-3705134D02*
G01X30162395Y-3825276D01*
G01X30255867Y-3705134D02*
G01X30261709Y-3710976D01*
G01X30267297Y-3705134D01*
G01X30261709Y-3699546D01*
G01X30255867Y-3705134D01*
G01X30261709Y-3745266D02*
G01X30261709Y-3825276D01*
G01X30383629Y-3745266D02*
G01X30383629Y-3825276D01*
G01X30383629Y-3762284D02*
G01X30372199Y-3750854D01*
G01X30360769Y-3745266D01*
G01X30343751Y-3745266D01*
G01X30332321Y-3750854D01*
G01X30320891Y-3762284D01*
G01X30315049Y-3779556D01*
G01X30315049Y-3790986D01*
G01X30320891Y-3808004D01*
G01X30332321Y-3819434D01*
G01X30343751Y-3825276D01*
G01X30360769Y-3825276D01*
G01X30372199Y-3819434D01*
G01X30383629Y-3808004D01*
G01X33745355Y-3705134D02*
G01X33745355Y-3825276D01*
G01X33705223Y-3705134D02*
G01X33785233Y-3705134D01*
G01X33861687Y-3745266D02*
G01X33850257Y-3750854D01*
G01X33838827Y-3762284D01*
G01X33832985Y-3779556D01*
G01X33832985Y-3790986D01*
G01X33838827Y-3808004D01*
G01X33850257Y-3819434D01*
G01X33861687Y-3825276D01*
G01X33878705Y-3825276D01*
G01X33890135Y-3819434D01*
G01X33901565Y-3808004D01*
G01X33907407Y-3790986D01*
G01X33907407Y-3779556D01*
G01X33901565Y-3762284D01*
G01X33890135Y-3750854D01*
G01X33878705Y-3745266D01*
G01X33861687Y-3745266D01*
G01X33955159Y-3745266D02*
G01X33955159Y-3865154D01*
G01X33955159Y-3762284D02*
G01X33966589Y-3750854D01*
G01X33978019Y-3745266D01*
G01X33995291Y-3745266D01*
G01X34006721Y-3750854D01*
G01X34018151Y-3762284D01*
G01X34023739Y-3779556D01*
G01X34023739Y-3790986D01*
G01X34018151Y-3808004D01*
G01X34006721Y-3819434D01*
G01X33995291Y-3825276D01*
G01X33978019Y-3825276D01*
G01X33966589Y-3819434D01*
G01X33955159Y-3808004D01*
G01X34199507Y-3705134D02*
G01X34199507Y-3825276D01*
G01X34199507Y-3825276D02*
G01X34268087Y-3825276D01*
G01X34384419Y-3745266D02*
G01X34384419Y-3825276D01*
G01X34384419Y-3762284D02*
G01X34372989Y-3750854D01*
G01X34361559Y-3745266D01*
G01X34344541Y-3745266D01*
G01X34333111Y-3750854D01*
G01X34321681Y-3762284D01*
G01X34315839Y-3779556D01*
G01X34315839Y-3790986D01*
G01X34321681Y-3808004D01*
G01X34333111Y-3819434D01*
G01X34344541Y-3825276D01*
G01X34361559Y-3825276D01*
G01X34372989Y-3819434D01*
G01X34384419Y-3808004D01*
G01X34438013Y-3745266D02*
G01X34472303Y-3825276D01*
G01X34506593Y-3745266D02*
G01X34472303Y-3825276D01*
G01X34460873Y-3848136D01*
G01X34449443Y-3859566D01*
G01X34438013Y-3865154D01*
G01X34432171Y-3865154D01*
G01X34554345Y-3779556D02*
G01X34622925Y-3779556D01*
G01X34622925Y-3768126D01*
G01X34617337Y-3756696D01*
G01X34611495Y-3750854D01*
G01X34600065Y-3745266D01*
G01X34583047Y-3745266D01*
G01X34571617Y-3750854D01*
G01X34560187Y-3762284D01*
G01X34554345Y-3779556D01*
G01X34554345Y-3790986D01*
G01X34560187Y-3808004D01*
G01X34571617Y-3819434D01*
G01X34583047Y-3825276D01*
G01X34600065Y-3825276D01*
G01X34611495Y-3819434D01*
G01X34622925Y-3808004D01*
G01X34670677Y-3745266D02*
G01X34670677Y-3825276D01*
G01X34670677Y-3779556D02*
G01X34676519Y-3762284D01*
G01X34687949Y-3750854D01*
G01X34699379Y-3745266D01*
G01X34716397Y-3745266D01*
G01X34764149Y-3773714D02*
G01X34867019Y-3773714D01*
G01X34914771Y-3705134D02*
G01X34914771Y-3825276D01*
G01X34914771Y-3705134D02*
G01X34966333Y-3705134D01*
G01X34983351Y-3710976D01*
G01X34989193Y-3716564D01*
G01X34994781Y-3727994D01*
G01X34994781Y-3739424D01*
G01X34989193Y-3750854D01*
G01X34983351Y-3756696D01*
G01X34966333Y-3762284D01*
G01X34914771Y-3762284D02*
G01X34966333Y-3762284D01*
G01X34983351Y-3768126D01*
G01X34989193Y-3773714D01*
G01X34994781Y-3785144D01*
G01X34994781Y-3802416D01*
G01X34989193Y-3813846D01*
G01X34983351Y-3819434D01*
G01X34966333Y-3825276D01*
G01X34914771Y-3825276D01*
G01X35071235Y-3745266D02*
G01X35059805Y-3750854D01*
G01X35048375Y-3762284D01*
G01X35042533Y-3779556D01*
G01X35042533Y-3790986D01*
G01X35048375Y-3808004D01*
G01X35059805Y-3819434D01*
G01X35071235Y-3825276D01*
G01X35088253Y-3825276D01*
G01X35099683Y-3819434D01*
G01X35111113Y-3808004D01*
G01X35116955Y-3790986D01*
G01X35116955Y-3779556D01*
G01X35111113Y-3762284D01*
G01X35099683Y-3750854D01*
G01X35088253Y-3745266D01*
G01X35071235Y-3745266D01*
G01X35181979Y-3705134D02*
G01X35181979Y-3802416D01*
G01X35187567Y-3819434D01*
G01X35198997Y-3825276D01*
G01X35210427Y-3825276D01*
G01X35164707Y-3745266D02*
G01X35204839Y-3745266D01*
G01X35275451Y-3705134D02*
G01X35275451Y-3802416D01*
G01X35281039Y-3819434D01*
G01X35292469Y-3825276D01*
G01X35303899Y-3825276D01*
G01X35258179Y-3745266D02*
G01X35298311Y-3745266D01*
G01X35380353Y-3745266D02*
G01X35368923Y-3750854D01*
G01X35357493Y-3762284D01*
G01X35351651Y-3779556D01*
G01X35351651Y-3790986D01*
G01X35357493Y-3808004D01*
G01X35368923Y-3819434D01*
G01X35380353Y-3825276D01*
G01X35397371Y-3825276D01*
G01X35408801Y-3819434D01*
G01X35420231Y-3808004D01*
G01X35426073Y-3790986D01*
G01X35426073Y-3779556D01*
G01X35420231Y-3762284D01*
G01X35408801Y-3750854D01*
G01X35397371Y-3745266D01*
G01X35380353Y-3745266D01*
G01X35473825Y-3745266D02*
G01X35473825Y-3825276D01*
G01X35473825Y-3768126D02*
G01X35491097Y-3750854D01*
G01X35502527Y-3745266D01*
G01X35519545Y-3745266D01*
G01X35530975Y-3750854D01*
G01X35536817Y-3768126D01*
G01X35536817Y-3825276D01*
G01X35536817Y-3768126D02*
G01X35553835Y-3750854D01*
G01X35565265Y-3745266D01*
G01X35582537Y-3745266D01*
G01X35593967Y-3750854D01*
G01X35599555Y-3768126D01*
G01X35599555Y-3825276D01*
G01X35775323Y-3705134D02*
G01X35775323Y-3825276D01*
G01X35775323Y-3825276D02*
G01X35843903Y-3825276D01*
G01X35960235Y-3745266D02*
G01X35960235Y-3825276D01*
G01X35960235Y-3762284D02*
G01X35948805Y-3750854D01*
G01X35937375Y-3745266D01*
G01X35920357Y-3745266D01*
G01X35908927Y-3750854D01*
G01X35897497Y-3762284D01*
G01X35891655Y-3779556D01*
G01X35891655Y-3790986D01*
G01X35897497Y-3808004D01*
G01X35908927Y-3819434D01*
G01X35920357Y-3825276D01*
G01X35937375Y-3825276D01*
G01X35948805Y-3819434D01*
G01X35960235Y-3808004D01*
G01X36013829Y-3745266D02*
G01X36048119Y-3825276D01*
G01X36082409Y-3745266D02*
G01X36048119Y-3825276D01*
G01X36036689Y-3848136D01*
G01X36025259Y-3859566D01*
G01X36013829Y-3865154D01*
G01X36007987Y-3865154D01*
G01X36130161Y-3779556D02*
G01X36198741Y-3779556D01*
G01X36198741Y-3768126D01*
G01X36193153Y-3756696D01*
G01X36187311Y-3750854D01*
G01X36175881Y-3745266D01*
G01X36158863Y-3745266D01*
G01X36147433Y-3750854D01*
G01X36136003Y-3762284D01*
G01X36130161Y-3779556D01*
G01X36130161Y-3790986D01*
G01X36136003Y-3808004D01*
G01X36147433Y-3819434D01*
G01X36158863Y-3825276D01*
G01X36175881Y-3825276D01*
G01X36187311Y-3819434D01*
G01X36198741Y-3808004D01*
G01X36246493Y-3745266D02*
G01X36246493Y-3825276D01*
G01X36246493Y-3779556D02*
G01X36252335Y-3762284D01*
G01X36263765Y-3750854D01*
G01X36275195Y-3745266D01*
G01X36292213Y-3745266D01*

G04 Image Start*
G36*
G01X20587263Y-2724604D02*
G01X20481649Y-2713123D01*
G01X20438774Y-2810329D01*
G01X20395899Y-2713123D01*
G01X20290286Y-2724604D01*
G01X20353049Y-2638879D01*
G01X20313327Y-2584624D01*
G01X20344820Y-2584624D01*
G01X20384520Y-2638879D01*
G01X20344820Y-2693133D01*
G01X20411647Y-2685869D01*
G01X20411647Y-2685869D01*
G01X20438774Y-2747362D01*
G01X20465901Y-2685869D01*
G01X20532729Y-2693133D01*
G01X20493029Y-2638879D01*
G01X20532703Y-2584650D01*
G01X20465876Y-2591914D01*
G01X20438774Y-2530395D01*
G01X20411647Y-2591889D01*
G01X20344820Y-2584624D01*
G01X20313327Y-2584624D01*
G01X20290286Y-2553154D01*
G01X20395924Y-2564634D01*
G01X20438774Y-2467429D01*
G01X20481649Y-2564634D01*
G01X20587263Y-2553154D01*
G01X20524499Y-2638879D01*
G01X20587263Y-2724604D01*
G37*
G36*
G01X20458269Y-1610299D02*
G01X20450529Y-1610887D01*
G01X20442686Y-1611086D01*
G01X20434843Y-1610887D01*
G01X20427103Y-1610299D01*
G01X20419475Y-1609330D01*
G01X20411970Y-1607990D01*
G01X20397364Y-1604235D01*
G01X20383362Y-1599110D01*
G01X20370040Y-1592693D01*
G01X20357474Y-1585060D01*
G01X20345742Y-1576287D01*
G01X20334920Y-1566452D01*
G01X20325084Y-1555629D01*
G01X20316311Y-1543897D01*
G01X20308678Y-1531332D01*
G01X20302261Y-1518010D01*
G01X20297137Y-1504008D01*
G01X20293382Y-1489402D01*
G01X20292042Y-1481896D01*
G01X20291073Y-1474269D01*
G01X20290484Y-1466529D01*
G01X20290286Y-1458686D01*
G01X20315686Y-1458686D01*
G01X20316343Y-1471652D01*
G01X20318271Y-1484248D01*
G01X20321405Y-1496410D01*
G01X20325682Y-1508072D01*
G01X20331037Y-1519172D01*
G01X20337405Y-1529643D01*
G01X20344723Y-1539423D01*
G01X20352925Y-1548446D01*
G01X20361949Y-1556649D01*
G01X20371728Y-1563966D01*
G01X20382200Y-1570335D01*
G01X20393299Y-1575690D01*
G01X20404962Y-1579966D01*
G01X20417123Y-1583101D01*
G01X20417123Y-1583101D01*
G01X20429719Y-1585029D01*
G01X20442686Y-1585686D01*
G01X20455652Y-1585029D01*
G01X20468248Y-1583101D01*
G01X20480410Y-1579966D01*
G01X20492072Y-1575690D01*
G01X20503172Y-1570335D01*
G01X20513643Y-1563966D01*
G01X20523423Y-1556649D01*
G01X20532446Y-1548446D01*
G01X20540649Y-1539423D01*
G01X20547967Y-1529643D01*
G01X20554335Y-1519172D01*
G01X20559690Y-1508072D01*
G01X20563966Y-1496410D01*
G01X20567101Y-1484248D01*
G01X20569029Y-1471652D01*
G01X20569686Y-1458686D01*
G01X20569029Y-1445719D01*
G01X20567101Y-1433123D01*
G01X20563966Y-1420962D01*
G01X20559690Y-1409299D01*
G01X20554335Y-1398200D01*
G01X20547967Y-1387728D01*
G01X20540649Y-1377949D01*
G01X20532446Y-1368925D01*
G01X20523423Y-1360723D01*
G01X20513643Y-1353405D01*
G01X20503172Y-1347037D01*
G01X20492072Y-1341682D01*
G01X20480410Y-1337405D01*
G01X20468248Y-1334271D01*
G01X20455652Y-1332343D01*
G01X20442686Y-1331686D01*
G01X20429719Y-1332343D01*
G01X20417123Y-1334271D01*
G01X20404962Y-1337405D01*
G01X20393299Y-1341682D01*
G01X20382200Y-1347037D01*
G01X20371728Y-1353405D01*
G01X20361949Y-1360723D01*
G01X20352925Y-1368925D01*
G01X20344723Y-1377949D01*
G01X20337405Y-1387728D01*
G01X20331037Y-1398200D01*
G01X20325682Y-1409299D01*
G01X20321405Y-1420962D01*
G01X20318271Y-1433123D01*
G01X20316343Y-1445719D01*
G01X20315686Y-1458686D01*
G01X20290286Y-1458686D01*
G01X20290484Y-1450843D01*
G01X20291073Y-1443102D01*
G01X20292042Y-1435475D01*
G01X20293382Y-1427970D01*
G01X20297137Y-1413364D01*
G01X20302261Y-1399362D01*
G01X20308678Y-1386040D01*
G01X20316311Y-1373474D01*
G01X20325084Y-1361742D01*
G01X20334920Y-1350920D01*
G01X20345742Y-1341084D01*
G01X20357474Y-1332311D01*
G01X20370040Y-1324678D01*
G01X20383362Y-1318261D01*
G01X20397364Y-1313137D01*
G01X20411970Y-1309382D01*
G01X20419475Y-1308042D01*
G01X20427103Y-1307072D01*
G01X20434843Y-1306484D01*
G01X20442686Y-1306286D01*
G01X20450529Y-1306484D01*
G01X20458269Y-1307072D01*
G01X20465896Y-1308042D01*
G01X20473402Y-1309382D01*
G01X20488008Y-1313137D01*
G01X20502010Y-1318261D01*
G01X20515332Y-1324678D01*
G01X20527897Y-1332311D01*
G01X20539629Y-1341084D01*
G01X20550452Y-1350920D01*
G01X20560287Y-1361742D01*
G01X20569060Y-1373474D01*
G01X20576693Y-1386040D01*
G01X20583110Y-1399362D01*
G01X20588235Y-1413364D01*
G01X20591990Y-1427970D01*
G01X20593330Y-1435475D01*
G01X20594299Y-1443102D01*
G01X20594887Y-1450843D01*
G01X20595086Y-1458686D01*
G01X20594887Y-1466529D01*
G01X20594299Y-1474269D01*
G01X20593330Y-1481896D01*
G01X20591990Y-1489402D01*
G01X20588235Y-1504008D01*
G01X20583110Y-1518010D01*
G01X20576693Y-1531332D01*
G01X20569060Y-1543897D01*
G01X20560287Y-1555629D01*
G01X20550452Y-1566452D01*
G01X20539629Y-1576287D01*
G01X20527897Y-1585060D01*
G01X20515332Y-1592693D01*
G01X20502010Y-1599110D01*
G01X20488008Y-1604235D01*
G01X20473402Y-1607990D01*
G01X20465896Y-1609330D01*
G01X20458269Y-1610299D01*
G37*
G36*
G01X20595086Y-3850237D02*
G01X20511977Y-3850237D01*
G01X20511977Y-3933371D01*
G01X20373420Y-3933371D01*
G01X20373420Y-3850263D01*
G01X20290286Y-3850263D01*
G01X20290286Y-3737106D01*
G01X20315686Y-3737106D01*
G01X20315686Y-3824837D01*
G01X20398820Y-3824837D01*
G01X20398820Y-3907971D01*
G01X20398820Y-3907971D01*
G01X20486552Y-3907971D01*
G01X20486552Y-3824863D01*
G01X20569686Y-3824863D01*
G01X20569686Y-3737106D01*
G01X20486552Y-3737106D01*
G01X20486552Y-3653971D01*
G01X20398820Y-3653971D01*
G01X20398820Y-3737106D01*
G01X20315686Y-3737106D01*
G01X20290286Y-3737106D01*
G01X20290286Y-3711706D01*
G01X20373420Y-3711706D01*
G01X20373420Y-3628571D01*
G01X20511952Y-3628571D01*
G01X20511952Y-3711706D01*
G01X20595086Y-3711706D01*
G01X20595086Y-3850237D01*
G37*
G36*
G01X20595086Y-3048000D02*
G01X20525058Y-3200400D01*
G01X20595086Y-3352800D01*
G01X20442686Y-3282772D01*
G01X20290286Y-3352800D01*
G01X20314049Y-3301086D01*
G01X20342000Y-3301086D01*
G01X20432069Y-3259684D01*
G01X20442686Y-3254807D01*
G01X20453303Y-3259684D01*
G01X20543371Y-3301086D01*
G01X20501969Y-3211017D01*
G01X20497093Y-3200400D01*
G01X20501969Y-3189783D01*
G01X20543371Y-3099714D01*
G01X20453303Y-3141116D01*
G01X20442686Y-3145993D01*
G01X20432069Y-3141116D01*
G01X20342000Y-3099714D01*
G01X20383402Y-3189783D01*
G01X20388279Y-3200400D01*
G01X20388279Y-3200400D01*
G01X20383402Y-3211017D01*
G01X20342000Y-3301086D01*
G01X20314049Y-3301086D01*
G01X20360314Y-3200400D01*
G01X20290286Y-3048000D01*
G01X20442686Y-3118028D01*
G01X20595086Y-3048000D01*
G37*
G36*
G01X20290286Y-1886857D02*
G01X20595086Y-1886857D01*
G01X20442686Y-2150814D01*
G01X20304951Y-1912257D01*
G01X20334279Y-1912257D01*
G01X20442686Y-2100014D01*
G01X20551093Y-1912257D01*
G01X20551093Y-1912257D01*
G01X20334279Y-1912257D01*
G01X20304951Y-1912257D01*
G01X20290286Y-1886857D01*
G37*
G36*
G01X20290286Y-725714D02*
G01X20569686Y-725714D01*
G01X20569686Y-1005114D01*
G01X20290286Y-1005114D01*
G01X20290286Y-751114D01*
G01X20315686Y-751114D01*
G01X20315686Y-979714D01*
G01X20544286Y-979714D01*
G01X20544286Y-751114D01*
G01X20544286Y-751114D01*
G01X20315686Y-751114D01*
G01X20290286Y-751114D01*
G01X20290286Y-725714D01*
G37*

G04 PolygonModel Start*
G54D17*
G01X20000000Y-4064000D02*
G01X36882945Y-4064000D01*
G01X20000000Y-3483429D02*
G01X36882945Y-3483429D01*
G01X20000000Y-2902857D02*
G01X36882945Y-2902857D01*
G01X20000000Y-2322286D02*
G01X36882945Y-2322286D01*
G01X20000000Y-1741714D02*
G01X36882945Y-1741714D01*
G01X20000000Y-1161143D02*
G01X36882945Y-1161143D01*
G01X20000000Y-580571D02*
G01X36882945Y-580571D01*
G01X20000000Y0D02*
G01X36882945Y0D01*
G01X20000000Y0D02*
G01X20000000Y-4038600D01*
G01X21451429Y0D02*
G01X21451429Y-4038600D01*
G01X22865592Y0D02*
G01X22865592Y-4038600D01*
G01X26923641Y0D02*
G01X26923641Y-4038600D01*
G01X28385048Y0D02*
G01X28385048Y-4038600D01*
G01X29816229Y0D02*
G01X29816229Y-4038600D01*
G01X31485408Y0D02*
G01X31485408Y-4038600D01*
G01X33404777Y0D02*
G01X33404777Y-4038600D01*
G01X36882945Y0D02*
G01X36882945Y-4038600D01*

M02*

